<?xml version="1.0" encoding="utf-8"?>
<!-- Generator: Adobe Illustrator 26.0.3, SVG Export Plug-In . SVG Version: 6.00 Build 0)  -->
<svg version="1.1" id="Layer_1" xmlns="http://www.w3.org/2000/svg" xmlns:xlink="http://www.w3.org/1999/xlink" x="0px" y="0px"
	 viewBox="0 0 27.93 9.47" style="enable-background:new 0 0 27.93 9.47;" xml:space="preserve">
<style type="text/css">
	.st0{fill:#010101;}
	.st1{fill:#34B8BB;}
</style>
<g>
	<g id="XMLID_00000092425250823731195880000017086710526037008315_">
		<g>
			<polygon class="st0" points="27.93,1.08 26.47,8.4 25.08,8.4 22.35,3.82 21.43,8.4 19.76,8.4 21.22,1.08 22.62,1.08 25.35,5.67 
				26.26,1.08 			"/>
			<path class="st1" d="M19.12,0c0.52,0.01,0.93,0.43,0.92,0.97c-0.01,0.52-0.43,0.93-0.96,0.93s-0.94-0.42-0.93-0.95
				C18.15,0.4,18.58-0.01,19.12,0z"/>
			<path class="st1" d="M15.3,7.11c1.31,0,2.37-1.06,2.37-2.37c0-0.47-0.14-0.9-0.37-1.27l1.04-1.03c0.49,0.64,0.77,1.43,0.77,2.29
				c0,2.1-1.7,3.81-3.81,3.81c-0.86,0-1.66-0.29-2.3-0.77l1.03-1.03C14.4,6.97,14.83,7.11,15.3,7.11z"/>
			<path class="st1" d="M16.54,2.7c-0.36-0.22-0.78-0.34-1.23-0.34c-1.31,0-2.37,1.06-2.37,2.37c0,0.45,0.12,0.87,0.34,1.23
				l-1.03,1.03c-0.47-0.63-0.74-1.41-0.74-2.26c0-2.1,1.7-3.81,3.81-3.81c0.84,0.01,1.62,0.28,2.25,0.75L16.54,2.7z"/>
			<path class="st1" d="M11.53,7.58c0.53,0,0.94,0.42,0.94,0.95c0,0.52-0.42,0.94-0.95,0.94c-0.54,0-0.95-0.42-0.95-0.96
				C10.57,7.98,10.99,7.58,11.53,7.58z"/>
			<path class="st0" d="M5.91,6.58c0.36,0.33,0.86,0.5,1.51,0.5c0.77,0,1.42-0.28,1.94-0.85l1,1.02C9.64,8.1,8.61,8.52,7.27,8.52
				c-0.73,0-1.37-0.14-1.91-0.4C4.81,7.86,4.39,7.48,4.1,7C3.8,6.52,3.66,5.97,3.66,5.34c0-0.83,0.19-1.58,0.57-2.24
				c0.38-0.67,0.91-1.19,1.6-1.57C6.52,1.14,7.31,0.95,8.2,0.95c0.65,0,1.23,0.11,1.74,0.33c0.5,0.22,0.88,0.54,1.14,0.96l-1.22,1
				C9.47,2.68,8.88,2.39,8.09,2.39c-0.54,0-1.01,0.13-1.42,0.38S5.94,3.36,5.71,3.79C5.49,4.22,5.37,4.71,5.37,5.24
				C5.37,5.8,5.55,6.25,5.91,6.58z"/>
			<polygon class="st0" points="3.16,1.08 1.7,8.39 0,8.39 1.46,1.08 			"/>
		</g>
		<g>
		</g>
	</g>
</g>
</svg>
