<svg version="1.1" viewBox="0.0 0.0 851.4278215223097 435.9186351706037" fill="none" stroke="none" stroke-linecap="square" stroke-miterlimit="10" xmlns:xlink="http://www.w3.org/1999/xlink" xmlns="http://www.w3.org/2000/svg"><clipPath id="p.0"><path d="m0 0l851.4278 0l0 435.91864l-851.4278 0l0 -435.91864z" clip-rule="nonzero"/></clipPath><g clip-path="url(#p.0)"><path fill="#000000" fill-opacity="0.0" d="m0 0l851.4278 0l0 435.91864l-851.4278 0z" fill-rule="evenodd"/><path fill="#eeeeee" d="m494.95276 163.34645l0 0c0 -84.95618 73.01636 -153.82677 163.08661 -153.82677l0 0c43.253235 0 84.734985 16.206703 115.31964 45.05482c30.584656 28.848118 47.766968 67.97455 47.766968 108.77194l0 0c0 84.95619 -73.01636 153.82677 -163.08661 153.82677l0 0c-90.07025 0 -163.08661 -68.870575 -163.08661 -153.82677z" fill-rule="evenodd"/><path stroke="#595959" stroke-width="1.0" stroke-linejoin="round" stroke-linecap="butt" stroke-dasharray="4.0,3.0" d="m494.95276 163.34645l0 0c0 -84.95618 73.01636 -153.82677 163.08661 -153.82677l0 0c43.253235 0 84.734985 16.206703 115.31964 45.05482c30.584656 28.848118 47.766968 67.97455 47.766968 108.77194l0 0c0 84.95619 -73.01636 153.82677 -163.08661 153.82677l0 0c-90.07025 0 -163.08661 -68.870575 -163.08661 -153.82677z" fill-rule="evenodd"/><path fill="#eeeeee" d="m10.522309 163.34645l0 0c0 -84.95618 73.016365 -153.82677 163.08661 -153.82677l0 0c43.253265 0 84.734985 16.206703 115.31967 45.05482c30.584656 28.848118 47.766937 67.97455 47.766937 108.77194l0 0c0 84.95619 -73.01636 153.82677 -163.08661 153.82677l0 0c-90.070244 0 -163.08661 -68.870575 -163.08661 -153.82677z" fill-rule="evenodd"/><path stroke="#595959" stroke-width="1.0" stroke-linejoin="round" stroke-linecap="butt" stroke-dasharray="4.0,3.0" d="m10.522309 163.34645l0 0c0 -84.95618 73.016365 -153.82677 163.08661 -153.82677l0 0c43.253265 0 84.734985 16.206703 115.31967 45.05482c30.584656 28.848118 47.766937 67.97455 47.766937 108.77194l0 0c0 84.95619 -73.01636 153.82677 -163.08661 153.82677l0 0c-90.070244 0 -163.08661 -68.870575 -163.08661 -153.82677z" fill-rule="evenodd"/><path fill="#ffffff" d="m120.50656 238.34926l0 0c0 -4.888031 3.9625397 -8.850571 8.850571 -8.850571l88.503586 0c2.3473206 0 4.5984955 0.9324646 6.258301 2.59227c1.6598053 1.6598053 2.59227 3.9109802 2.59227 6.258301l0 35.40123c0 4.888031 -3.9625397 8.850555 -8.850571 8.850555l-88.503586 0c-4.888031 0 -8.850571 -3.9625244 -8.850571 -8.850555z" fill-rule="evenodd"/><path stroke="#595959" stroke-width="1.0" stroke-linejoin="round" stroke-linecap="butt" d="m120.50656 238.34926l0 0c0 -4.888031 3.9625397 -8.850571 8.850571 -8.850571l88.503586 0c2.3473206 0 4.5984955 0.9324646 6.258301 2.59227c1.6598053 1.6598053 2.59227 3.9109802 2.59227 6.258301l0 35.40123c0 4.888031 -3.9625397 8.850555 -8.850571 8.850555l-88.503586 0c-4.888031 0 -8.850571 -3.9625244 -8.850571 -8.850555z" fill-rule="evenodd"/><path fill="#000000" d="m154.23964 262.96988l0 -13.35939l5.015625 0q1.53125 0 2.453125 0.40625q0.921875 0.40625 1.4375 1.25q0.53125 0.84375 0.53125 1.765625q0 0.859375 -0.46875 1.625q-0.453125 0.75 -1.390625 1.203125q1.203125 0.35939026 1.859375 1.2187653q0.65625 0.859375 0.65625 2.015625q0 0.9375 -0.40625 1.75q-0.390625 0.796875 -0.984375 1.234375q-0.578125 0.4375 -1.453125 0.671875q-0.875 0.21875 -2.15625 0.21875l-5.09375 0zm1.78125 -7.7500153l2.875 0q1.1875 0 1.6875 -0.140625q0.671875 -0.203125 1.015625 -0.671875q0.34375 -0.46875 0.34375 -1.171875q0 -0.65625 -0.328125 -1.15625q-0.3125 -0.515625 -0.90625 -0.703125q-0.59375 -0.1875 -2.03125 -0.1875l-2.65625 0l0 4.03125zm0 6.1718903l3.3125 0q0.859375 0 1.203125 -0.0625q0.609375 -0.109375 1.015625 -0.359375q0.421875 -0.265625 0.6875 -0.75q0.265625 -0.484375 0.265625 -1.125q0 -0.75 -0.390625 -1.296875q-0.375 -0.546875 -1.0625 -0.765625q-0.671875 -0.234375 -1.953125 -0.234375l-3.078125 0l0 4.59375zm10.693573 1.578125l0 -13.35939l2.65625 0l3.15625 9.45314q0.4375 1.328125 0.640625 1.984375q0.234375 -0.734375 0.703125 -2.140625l3.203125 -9.29689l2.375 0l0 13.35939l-1.703125 0l0 -11.17189l-3.875 11.17189l-1.59375 0l-3.859375 -11.375015l0 11.375015l-1.703125 0zm25.118927 -4.6875l1.765625 0.453125q-0.5625 2.171875 -2.0 3.328125q-1.4375 1.140625 -3.53125 1.140625q-2.15625 0 -3.515625 -0.875q-1.34375 -0.890625 -2.0625 -2.546875q-0.703125 -1.671875 -0.703125 -3.59375q0 -2.0781403 0.796875 -3.6250153q0.796875 -1.5625 2.265625 -2.359375q1.484375 -0.8125 3.25 -0.8125q2.0 0 3.359375 1.015625q1.375 1.015625 1.90625 2.875l-1.734375 0.40625q-0.46875 -1.453125 -1.359375 -2.109375q-0.875 -0.671875 -2.203125 -0.671875q-1.546875 0 -2.578125 0.734375q-1.03125 0.734375 -1.453125 1.984375q-0.421875 1.234375 -0.421875 2.5625153q0 1.703125 0.5 2.96875q0.5 1.265625 1.546875 1.90625q1.046875 0.625 2.265625 0.625q1.484375 0 2.515625 -0.859375q1.03125 -0.859375 1.390625 -2.546875z" fill-rule="nonzero"/><path fill="#ffffff" d="m202.04987 126.2364l0 0c0 -4.888031 3.9625397 -8.850571 8.850571 -8.850571l88.503586 0c2.3473206 0 4.59848 0.9324722 6.258301 2.59227c1.65979 1.6598053 2.5922852 3.9109879 2.5922852 6.258301l0 35.401222c0 4.888031 -3.962555 8.850571 -8.850586 8.850571l-88.503586 0c-4.888031 0 -8.850571 -3.9625397 -8.850571 -8.850571z" fill-rule="evenodd"/><path stroke="#595959" stroke-width="1.0" stroke-linejoin="round" stroke-linecap="butt" d="m202.04987 126.2364l0 0c0 -4.888031 3.9625397 -8.850571 8.850571 -8.850571l88.503586 0c2.3473206 0 4.59848 0.9324722 6.258301 2.59227c1.65979 1.6598053 2.5922852 3.9109879 2.5922852 6.258301l0 35.401222c0 4.888031 -3.962555 8.850571 -8.850586 8.850571l-88.503586 0c-4.888031 0 -8.850571 -3.9625397 -8.850571 -8.850571z" fill-rule="evenodd"/><path fill="#000000" d="m236.29764 150.85701l0 -13.359375l5.015625 0q1.53125 0 2.453125 0.40625q0.921875 0.40625 1.4375 1.25q0.53125 0.84375 0.53125 1.765625q0 0.859375 -0.46875 1.625q-0.453125 0.75 -1.390625 1.203125q1.203125 0.359375 1.859375 1.21875q0.65625 0.859375 0.65625 2.015625q0 0.9375 -0.40625 1.75q-0.390625 0.796875 -0.984375 1.234375q-0.578125 0.4375 -1.453125 0.671875q-0.875 0.21875 -2.15625 0.21875l-5.09375 0zm1.78125 -7.75l2.875 0q1.1875 0 1.6875 -0.140625q0.671875 -0.203125 1.015625 -0.671875q0.34375 -0.46875 0.34375 -1.171875q0 -0.65625 -0.328125 -1.15625q-0.3125 -0.515625 -0.90625 -0.703125q-0.59375 -0.1875 -2.03125 -0.1875l-2.65625 0l0 4.03125zm0 6.171875l3.3125 0q0.859375 0 1.203125 -0.0625q0.609375 -0.109375 1.015625 -0.359375q0.421875 -0.265625 0.6875 -0.75q0.265625 -0.484375 0.265625 -1.125q0 -0.75 -0.390625 -1.296875q-0.375 -0.546875 -1.0625 -0.765625q-0.671875 -0.234375 -1.953125 -0.234375l-3.078125 0l0 4.59375zm10.693573 1.578125l0 -13.359375l2.65625 0l3.15625 9.453125q0.4375 1.328125 0.640625 1.984375q0.234375 -0.734375 0.703125 -2.140625l3.203125 -9.296875l2.375 0l0 13.359375l-1.703125 0l0 -11.171875l-3.875 11.171875l-1.59375 0l-3.859375 -11.375l0 11.375l-1.703125 0zm19.400177 0l-5.171875 -13.359375l1.921875 0l3.46875 9.703125q0.421875 1.171875 0.703125 2.1875q0.3125 -1.09375 0.71875 -2.1875l3.609375 -9.703125l1.796875 0l-5.234375 13.359375l-1.8125 0z" fill-rule="nonzero"/><path fill="#ffffff" d="m37.04987 126.2364l0 0c0 -4.888031 3.9625359 -8.850571 8.850571 -8.850571l88.503586 0c2.3473206 0 4.5984955 0.9324722 6.258301 2.59227c1.6598053 1.6598053 2.59227 3.9109879 2.59227 6.258301l0 35.401222c0 4.888031 -3.9625397 8.850571 -8.850571 8.850571l-88.503586 0c-4.888035 0 -8.850571 -3.9625397 -8.850571 -8.850571z" fill-rule="evenodd"/><path stroke="#595959" stroke-width="1.0" stroke-linejoin="round" stroke-linecap="butt" d="m37.04987 126.2364l0 0c0 -4.888031 3.9625359 -8.850571 8.850571 -8.850571l88.503586 0c2.3473206 0 4.5984955 0.9324722 6.258301 2.59227c1.6598053 1.6598053 2.59227 3.9109879 2.59227 6.258301l0 35.401222c0 4.888031 -3.9625397 8.850571 -8.850571 8.850571l-88.503586 0c-4.888035 0 -8.850571 -3.9625397 -8.850571 -8.850571z" fill-rule="evenodd"/><path fill="#000000" d="m72.33156 150.85701l0 -13.359375l5.015625 0q1.53125 0 2.453125 0.40625q0.921875 0.40625 1.4375 1.25q0.53125 0.84375 0.53125 1.765625q0 0.859375 -0.46875 1.625q-0.453125 0.75 -1.390625 1.203125q1.203125 0.359375 1.859375 1.21875q0.65625 0.859375 0.65625 2.015625q0 0.9375 -0.40625 1.75q-0.390625 0.796875 -0.984375 1.234375q-0.578125 0.4375 -1.453125 0.671875q-0.875 0.21875 -2.15625 0.21875l-5.09375 0zm1.78125 -7.75l2.875 0q1.1875 0 1.6875 -0.140625q0.671875 -0.203125 1.015625 -0.671875q0.34375 -0.46875 0.34375 -1.171875q0 -0.65625 -0.328125 -1.15625q-0.3125 -0.515625 -0.90625 -0.703125q-0.59375 -0.1875 -2.03125 -0.1875l-2.65625 0l0 4.03125zm0 6.171875l3.3125 0q0.859375 0 1.203125 -0.0625q0.609375 -0.109375 1.015625 -0.359375q0.421875 -0.265625 0.6875 -0.75q0.265625 -0.484375 0.265625 -1.125q0 -0.75 -0.390625 -1.296875q-0.375 -0.546875 -1.0625 -0.765625q-0.671875 -0.234375 -1.953125 -0.234375l-3.078125 0l0 4.59375zm10.146698 -2.71875l1.65625 -0.140625q0.125 1.0 0.546875 1.640625q0.4375 0.640625 1.34375 1.046875q0.921875 0.390625 2.0625 0.390625q1.0 0 1.78125 -0.296875q0.78125 -0.296875 1.15625 -0.8125q0.375 -0.53125 0.375 -1.15625q0 -0.625 -0.375 -1.09375q-0.359375 -0.46875 -1.1875 -0.796875q-0.546875 -0.203125 -2.390625 -0.640625q-1.828125 -0.453125 -2.5625 -0.84375q-0.96875 -0.5 -1.4375 -1.234375q-0.46875 -0.75 -0.46875 -1.671875q0 -1.0 0.578125 -1.875q0.578125 -0.890625 1.671875 -1.34375q1.109375 -0.453125 2.453125 -0.453125q1.484375 0 2.609375 0.484375q1.140625 0.46875 1.75 1.40625q0.609375 0.921875 0.65625 2.09375l-1.6875 0.125q-0.140625 -1.265625 -0.9375 -1.90625q-0.78125 -0.65625 -2.3125 -0.65625q-1.609375 0 -2.34375 0.59375q-0.734375 0.59375 -0.734375 1.421875q0 0.71875 0.53125 1.171875q0.5 0.46875 2.65625 0.96875q2.15625 0.484375 2.953125 0.84375q1.171875 0.53125 1.71875 1.359375q0.5625 0.828125 0.5625 1.90625q0 1.0625 -0.609375 2.015625q-0.609375 0.9375 -1.75 1.46875q-1.140625 0.515625 -2.578125 0.515625q-1.8125 0 -3.046875 -0.53125q-1.21875 -0.53125 -1.921875 -1.59375q-0.6875 -1.0625 -0.71875 -2.40625zm13.099823 4.296875l0 -13.359375l1.765625 0l0 5.484375l6.9375076 0l0 -5.484375l1.765625 0l0 13.359375l-1.765625 0l0 -6.296875l-6.9375076 0l0 6.296875l-1.765625 0z" fill-rule="nonzero"/><path fill="#ffffff" d="m336.69553 378.2495l0 0c0 -4.888031 3.962555 -8.850555 8.850586 -8.850555l88.50357 0c2.3473206 0 4.5985107 0.9324646 6.258301 2.5922546c1.6598206 1.6598206 2.5922852 3.9109802 2.5922852 6.258301l0 35.401245c0 4.888031 -3.962555 8.850555 -8.850586 8.850555l-88.50357 0c-4.888031 0 -8.850586 -3.9625244 -8.850586 -8.850555z" fill-rule="evenodd"/><path stroke="#595959" stroke-width="1.0" stroke-linejoin="round" stroke-linecap="butt" d="m336.69553 378.2495l0 0c0 -4.888031 3.962555 -8.850555 8.850586 -8.850555l88.50357 0c2.3473206 0 4.5985107 0.9324646 6.258301 2.5922546c1.6598206 1.6598206 2.5922852 3.9109802 2.5922852 6.258301l0 35.401245c0 4.888031 -3.962555 8.850555 -8.850586 8.850555l-88.50357 0c-4.888031 0 -8.850586 -3.9625244 -8.850586 -8.850555z" fill-rule="evenodd"/><path fill="#000000" d="m367.418 402.87012l0 -13.359375l5.921875 0q1.78125 0 2.703125 0.359375q0.9375 0.359375 1.484375 1.28125q0.5625 0.90625 0.5625 2.015625q0 1.40625 -0.921875 2.390625q-0.921875 0.96875 -2.84375 1.234375q0.703125 0.34375 1.078125 0.671875q0.765625 0.703125 1.453125 1.765625l2.328125 3.640625l-2.21875 0l-1.765625 -2.78125q-0.78125 -1.203125 -1.28125 -1.828125q-0.5 -0.640625 -0.90625 -0.890625q-0.390625 -0.265625 -0.796875 -0.359375q-0.296875 -0.078125 -0.984375 -0.078125l-2.046875 0l0 5.9375l-1.765625 0zm1.765625 -7.453125l3.796875 0q1.21875 0 1.890625 -0.25q0.6875 -0.265625 1.046875 -0.8125q0.359375 -0.546875 0.359375 -1.1875q0 -0.953125 -0.6875 -1.5625q-0.6875 -0.609375 -2.1875 -0.609375l-4.21875 0l0 4.421875zm18.09793 4.34375l1.6875 0.203125q-0.40625 1.484375 -1.484375 2.3125q-1.078125 0.8125 -2.765625 0.8125q-2.125 0 -3.375 -1.296875q-1.234375 -1.3125 -1.234375 -3.671875q0 -2.453125 1.25 -3.796875q1.265625 -1.34375 3.265625 -1.34375q1.9375 0 3.15625 1.328125q1.234375 1.3125 1.234375 3.703125q0 0.15625 0 0.4375l-7.21875 0q0.09375 1.59375 0.90625 2.453125q0.8125 0.84375 2.015625 0.84375q0.90625 0 1.546875 -0.46875q0.640625 -0.484375 1.015625 -1.515625zm-5.390625 -2.65625l5.40625 0q-0.109375 -1.21875 -0.625 -1.828125q-0.78125 -0.953125 -2.03125 -0.953125q-1.125 0 -1.90625 0.765625q-0.765625 0.75 -0.84375 2.015625zm9.094482 5.765625l0 -13.359375l1.640625 0l0 13.359375l-1.640625 0zm10.504181 -1.1875q-0.921875 0.765625 -1.765625 1.09375q-0.828125 0.3125 -1.796875 0.3125q-1.59375 0 -2.453125 -0.78125q-0.859375 -0.78125 -0.859375 -1.984375q0 -0.71875 0.328125 -1.296875q0.328125 -0.59375 0.84375 -0.9375q0.53125 -0.359375 1.1875 -0.546875q0.46875 -0.125 1.453125 -0.25q1.984375 -0.234375 2.921875 -0.5625q0.015625 -0.34375 0.015625 -0.421875q0 -1.0 -0.46875 -1.421875q-0.625 -0.546875 -1.875 -0.546875q-1.15625 0 -1.703125 0.40625q-0.546875 0.40625 -0.8125 1.421875l-1.609375 -0.21875q0.21875 -1.015625 0.71875 -1.640625q0.5 -0.640625 1.453125 -0.984375q0.953125 -0.34375 2.1875 -0.34375q1.25 0 2.015625 0.296875q0.78125 0.28125 1.140625 0.734375q0.375 0.4375 0.515625 1.109375q0.078125 0.421875 0.078125 1.515625l0 2.1875q0 2.28125 0.109375 2.890625q0.109375 0.59375 0.40625 1.15625l-1.703125 0q-0.265625 -0.515625 -0.328125 -1.1875zm-0.140625 -3.671875q-0.890625 0.375 -2.671875 0.625q-1.015625 0.140625 -1.4375 0.328125q-0.421875 0.1875 -0.65625 0.53125q-0.21875 0.34375 -0.21875 0.78125q0 0.65625 0.5 1.09375q0.5 0.4375 1.453125 0.4375q0.9375 0 1.671875 -0.40625q0.75 -0.421875 1.09375 -1.140625q0.265625 -0.5625 0.265625 -1.640625l0 -0.609375zm4.1257324 8.578125l-0.1875 -1.53125q0.546875 0.140625 0.9375 0.140625q0.546875 0 0.875 -0.1875q0.328125 -0.171875 0.546875 -0.5q0.15625 -0.25 0.5 -1.21875q0.046875 -0.140625 0.140625 -0.40625l-3.671875 -9.6875l1.765625 0l2.015625 5.59375q0.390625 1.078125 0.703125 2.25q0.28125 -1.125 0.671875 -2.203125l2.078125 -5.640625l1.640625 0l-3.6875 9.828125q-0.59375 1.609375 -0.921875 2.203125q-0.4375 0.8125 -1.0 1.1875q-0.5625 0.375 -1.34375 0.375q-0.484375 0 -1.0625 -0.203125z" fill-rule="nonzero"/><path fill="#000000" fill-opacity="0.0" d="m336.69553 395.95538c-81.54329 0 -163.08661 -56.677155 -163.08661 -113.35434" fill-rule="evenodd"/><path stroke="#595959" stroke-width="1.0" stroke-linejoin="round" stroke-linecap="butt" d="m336.69553 395.95538c-40.771637 0 -81.54329 -14.169281 -112.12204 -35.423218c-15.289368 -10.626984 -28.030502 -23.025116 -36.94931 -36.308807c-4.4593964 -6.641876 -7.963211 -13.505127 -10.352173 -20.479065c-1.1944885 -3.486969 -2.11026 -7.001648 -2.7274017 -10.530121c-0.15428162 -0.8821106 -0.28990173 -1.7651062 -0.40655518 -2.6487427c-0.05831909 -0.44180298 -0.11190796 -0.88378906 -0.16070557 -1.3258972l-0.0677948 -0.6460266" fill-rule="evenodd"/><path fill="#595959" stroke="#595959" stroke-width="1.0" stroke-linecap="butt" d="m175.5592 288.51074l-1.8770294 -4.4496155l-1.422287 4.615143z" fill-rule="evenodd"/><path fill="#000000" fill-opacity="0.0" d="m442.90027 395.95013c107.57477 0 215.1496 -56.677155 215.1496 -113.35434" fill-rule="evenodd"/><path stroke="#595959" stroke-width="1.0" stroke-linejoin="round" stroke-linecap="butt" d="m442.90027 395.95013c53.787384 0 107.57477 -14.169281 147.91534 -35.423218c20.170288 -10.626984 36.97882 -23.025116 48.744812 -36.308838c5.8829956 -6.6418457 10.505371 -13.505096 13.656982 -20.479034c1.5758057 -3.486969 2.7839355 -7.001648 3.5980835 -10.530121c0.20355225 -0.8821106 0.3824463 -1.7651062 0.5363159 -2.6487427c0.07696533 -0.44180298 0.14764404 -0.88378906 0.21203613 -1.3258972l0.09020996 -0.6515503" fill-rule="evenodd"/><path fill="#595959" stroke="#595959" stroke-width="1.0" stroke-linecap="butt" d="m659.3022 288.69168l-1.3487549 -4.6371765l-1.9475098 4.4192505z" fill-rule="evenodd"/><path fill="#000000" fill-opacity="0.0" d="m173.60892 229.49869c0 -42.7874 -15.181091 -85.5748 -30.362198 -85.5748" fill-rule="evenodd"/><path stroke="#595959" stroke-width="1.0" stroke-linejoin="round" stroke-linecap="butt" d="m173.60892 229.49869c0 -21.393707 -3.7952728 -42.7874 -9.48819 -58.832672c-2.8464508 -8.022644 -6.1673126 -14.708176 -9.725388 -19.388046c-0.8895111 -1.1699677 -1.7938538 -2.2145844 -2.70932 -3.1233978c-0.45773315 -0.45440674 -0.9182434 -0.8748627 -1.381073 -1.2600555c-0.2314148 -0.1926117 -0.46339417 -0.3764038 -0.69592285 -0.5512085c-0.116256714 -0.087402344 -0.2326355 -0.17256165 -0.3491516 -0.25546265l-0.3332672 -0.23036194" fill-rule="evenodd"/><path fill="#595959" stroke="#595959" stroke-width="1.0" stroke-linecap="butt" d="m149.45891 144.29387l-4.8282776 0.101135254l3.7636871 3.0260773z" fill-rule="evenodd"/><path fill="#000000" fill-opacity="0.0" d="m90.15223 170.48819c0 42.7874 15.181107 85.5748 30.362206 85.5748" fill-rule="evenodd"/><path stroke="#595959" stroke-width="1.0" stroke-linejoin="round" stroke-linecap="butt" d="m90.15223 170.48819c0 21.393707 3.7952805 42.7874 9.48819 58.832672c2.8464584 8.022644 6.1673203 14.708176 9.725395 19.388046c0.88951874 1.1699677 1.7938614 2.2145844 2.70932 3.1233978c0.45773315 0.45439148 0.9182434 0.8748627 1.3810654 1.2600708c0.23142242 0.19258118 0.46340942 0.3763733 0.6959305 0.551178c0.116249084 0.0874176 0.23264313 0.1725769 0.3491516 0.2554779l0.33325958 0.2303772" fill-rule="evenodd"/><path fill="#595959" stroke="#595959" stroke-width="1.0" stroke-linecap="butt" d="m114.302246 255.69301l4.8282776 -0.101135254l-3.7636871 -3.0260773z" fill-rule="evenodd"/><path fill="#000000" fill-opacity="0.0" d="m226.71129 256.04987c14.220474 0 28.440948 -42.7874 28.440948 -85.5748" fill-rule="evenodd"/><path stroke="#595959" stroke-width="1.0" stroke-linejoin="round" stroke-linecap="butt" d="m226.71129 256.04987c7.1102295 0 14.220474 -10.696854 19.553146 -26.742126c2.666336 -8.022629 4.8882904 -17.382385 6.4436493 -27.410675c0.77767944 -5.014145 1.3887177 -10.195435 1.8053284 -15.460297c0.20831299 -2.632431 0.36802673 -5.2857513 0.4756317 -7.9495087c0.026916504 -0.66593933 0.050567627 -1.33255 0.07090759 -1.9996185l3.8146973E-4 -0.0132751465" fill-rule="evenodd"/><path fill="#595959" stroke="#595959" stroke-width="1.0" stroke-linecap="butt" d="m256.71185 176.49966l-1.582016 -4.562866l-1.7210541 4.512268z" fill-rule="evenodd"/><path fill="#ffff00" d="m40.41995 192.42783l99.46457 0l0 30.29921l-99.46457 0z" fill-rule="evenodd"/><path stroke="#595959" stroke-width="1.0" stroke-linejoin="round" stroke-linecap="butt" d="m40.41995 192.42783l99.46457 0l0 30.29921l-99.46457 0z" fill-rule="evenodd"/><path fill="#000000" d="m53.091824 205.53743l-1.28125 0l0 -4.828125q-0.703125 0.65625 -1.65625 0.96875l0 -1.15625q0.5 -0.15625 1.078125 -0.609375q0.59375 -0.46875 0.8125 -1.078125l1.046875 0l0 6.703125zm1.8284912 1.96875q0.375 -0.8125 0.53125 -1.25q0.15625 -0.4375 0.28125 -1.0q0.140625 -0.5625 0.203125 -1.0625q0.0625 -0.515625 0.0625 -1.046875q0 -1.078125 -0.234375 -2.046875q-0.234375 -0.96875 -0.84375 -2.359375l0.859375 0q0.6875 0.984375 1.0625 2.09375q0.390625 1.09375 0.390625 2.21875q0 0.953125 -0.296875 2.03125q-0.34375 1.234375 -1.125 2.421875l-0.890625 0zm5.729248 -4.140625l1.3125 -0.125q0.109375 0.65625 0.46875 0.96875q0.359375 0.3125 0.984375 0.3125q0.6406212 0 0.9687462 -0.28125q0.34375 -0.28125 0.34375 -0.640625q0 -0.234375 -0.140625 -0.40625q-0.140625 -0.171875 -0.484375 -0.28125q-0.23437119 -0.09375 -1.0781212 -0.296875q-1.09375 -0.265625 -1.53125 -0.65625q-0.609375 -0.5625 -0.609375 -1.34375q0 -0.515625 0.28125 -0.953125q0.296875 -0.453125 0.84375 -0.6875q0.546875 -0.234375 1.3125 -0.234375q1.2499962 0 1.8906212 0.5625q0.640625 0.546875 0.671875 1.46875l-1.34375 0.0625q-0.09375 -0.515625 -0.375 -0.734375q-0.2812462 -0.234375 -0.8593712 -0.234375q-0.59375 0 -0.921875 0.234375q-0.203125 0.15625 -0.203125 0.421875q0 0.234375 0.1875 0.40625q0.265625 0.203125 1.25 0.4375q0.9843712 0.234375 1.4531212 0.484375q0.46875 0.25 0.734375 0.6875q0.265625 0.421875 0.265625 1.0625q0 0.5625 -0.328125 1.0625q-0.3125 0.5 -0.890625 0.75q-0.578125 0.25 -1.4531212 0.25q-1.265625 0 -1.953125 -0.578125q-0.671875 -0.59375 -0.796875 -1.71875zm6.5499077 2.171875l0 -6.671875l4.953125 0l0 1.125l-3.59375 0l0 1.484375l3.34375 0l0 1.125l-3.34375 0l0 1.8125l3.71875 0l0 1.125l-5.078125 0zm6.2374115 0l0 -6.671875l1.3125 0l2.734375 4.453125l0 -4.453125l1.25 0l0 6.671875l-1.34375 0l-2.703125 -4.359375l0 4.359375l-1.25 0zm6.7208557 -6.671875l2.46875 0q0.828125 0 1.265625 0.125q0.59375 0.171875 1.0 0.609375q0.421875 0.4375 0.640625 1.078125q0.21875 0.640625 0.21875 1.578125q0 0.828125 -0.203125 1.421875q-0.25 0.734375 -0.703125 1.1875q-0.359375 0.34375 -0.953125 0.53125q-0.453125 0.140625 -1.1875 0.140625l-2.546875 0l0 -6.671875zm1.34375 1.125l0 4.421875l1.015625 0q0.5625 0 0.8125 -0.0625q0.328125 -0.078125 0.546875 -0.265625q0.21875 -0.203125 0.34375 -0.65625q0.140625 -0.453125 0.140625 -1.21875q0 -0.78125 -0.140625 -1.1875q-0.125 -0.421875 -0.375 -0.65625q-0.25 -0.234375 -0.625 -0.3125q-0.28125 -0.0625 -1.109375 -0.0625l-0.609375 0z" fill-rule="nonzero"/><path fill="#000000" d="m49.7637 214.36555l1.3125 -0.125q0.109375 0.65625 0.46875 0.96875q0.359375 0.3125 0.984375 0.3125q0.640625 0 0.96875 -0.28125q0.34375 -0.28125 0.34375 -0.640625q0 -0.234375 -0.140625 -0.40625q-0.140625 -0.171875 -0.484375 -0.28125q-0.234375 -0.09375 -1.078125 -0.296875q-1.09375 -0.265625 -1.53125 -0.65625q-0.609375 -0.5625 -0.609375 -1.34375q0 -0.515625 0.28125 -0.953125q0.296875 -0.453125 0.84375 -0.6875q0.546875 -0.234375 1.3125 -0.234375q1.25 0 1.890625 0.5625q0.640625 0.546875 0.671875 1.46875l-1.34375 0.0625q-0.09375 -0.515625 -0.375 -0.734375q-0.28125 -0.234375 -0.859375 -0.234375q-0.59375 0 -0.921875 0.234375q-0.203125 0.15625 -0.203125 0.421875q0 0.234375 0.1875 0.40625q0.265625 0.203125 1.25 0.4375q0.984375 0.234375 1.453125 0.484375q0.46875 0.25 0.734375 0.6875q0.265625 0.421875 0.265625 1.0625q0 0.5625 -0.328125 1.0625q-0.3125 0.5 -0.890625 0.75q-0.578125 0.25 -1.453125 0.25q-1.265625 0 -1.953125 -0.578125q-0.671875 -0.59375 -0.796875 -1.71875zm9.3467865 0.625l1.28125 0.21875q-0.25 0.703125 -0.78125 1.078125q-0.53125 0.359375 -1.328125 0.359375q-1.265625 0 -1.859375 -0.828125q-0.484375 -0.65625 -0.484375 -1.65625q0 -1.203125 0.625 -1.890625q0.625 -0.6875 1.59375 -0.6875q1.078125 0 1.703125 0.71875q0.625 0.71875 0.59375 2.1875l-3.203125 0q0.015625 0.5625 0.3125 0.890625q0.296875 0.3125 0.734375 0.3125q0.296875 0 0.5 -0.15625q0.203125 -0.171875 0.3125 -0.546875zm0.078125 -1.28125q-0.015625 -0.5625 -0.296875 -0.84375q-0.265625 -0.296875 -0.65625 -0.296875q-0.421875 0 -0.6875 0.3125q-0.28125 0.296875 -0.28125 0.828125l1.921875 0zm3.5316162 2.828125l-1.28125 0l0 -4.84375l1.1875 0l0 0.6875q0.3125 -0.484375 0.546875 -0.640625q0.25 -0.15625 0.5625 -0.15625q0.4374962 0 0.8437462 0.25l-0.390625 1.109375q-0.3281212 -0.203125 -0.6093712 -0.203125q-0.265625 0 -0.453125 0.15625q-0.1875 0.140625 -0.296875 0.53125q-0.109375 0.375 -0.109375 1.609375l0 1.5zm3.7395134 0l-1.953125 -4.84375l1.34375 0l0.921875 2.46875l0.25 0.828125q0.109375 -0.3125 0.140625 -0.40625q0.0625 -0.203125 0.140625 -0.421875l0.90625 -2.46875l1.328125 0l-1.921875 4.84375l-1.15625 0zm3.8597412 -5.5l0 -1.171875l1.28125 0l0 1.171875l-1.28125 0zm0 5.5l0 -4.84375l1.28125 0l0 4.84375l-1.28125 0zm6.8104095 -3.40625l-1.265625 0.234375q-0.0625 -0.390625 -0.296875 -0.578125q-0.21875 -0.1875 -0.578125 -0.1875q-0.484375 0 -0.765625 0.328125q-0.28125 0.328125 -0.28125 1.109375q0 0.859375 0.28125 1.21875q0.296875 0.34375 0.78125 0.34375q0.375 0 0.59375 -0.203125q0.234375 -0.203125 0.328125 -0.71875l1.265625 0.21875q-0.203125 0.859375 -0.765625 1.3125q-0.546875 0.4375 -1.484375 0.4375q-1.046875 0 -1.6875 -0.671875q-0.625 -0.671875 -0.625 -1.84375q0 -1.203125 0.625 -1.875q0.640625 -0.671875 1.71875 -0.671875q0.875 0 1.390625 0.390625q0.53125 0.375 0.765625 1.15625zm3.7659912 1.859375l1.28125 0.21875q-0.25 0.703125 -0.78125 1.078125q-0.53125 0.359375 -1.328125 0.359375q-1.265625 0 -1.859375 -0.828125q-0.484375 -0.65625 -0.484375 -1.65625q0 -1.203125 0.625 -1.890625q0.625 -0.6875 1.59375 -0.6875q1.078125 0 1.703125 0.71875q0.625 0.71875 0.59375 2.1875l-3.203125 0q0.015625 0.5625 0.3125 0.890625q0.296875 0.3125 0.734375 0.3125q0.296875 0 0.5 -0.15625q0.203125 -0.171875 0.3125 -0.546875zm0.078125 -1.28125q-0.015625 -0.5625 -0.296875 -0.84375q-0.265625 -0.296875 -0.65625 -0.296875q-0.421875 0 -0.6875 0.3125q-0.28125 0.296875 -0.28125 0.828125l1.921875 0zm2.2972412 2.828125l0 -6.671875l2.015625 0l1.21875 4.546875l1.203125 -4.546875l2.015625 0l0 6.671875l-1.25 0l0 -5.25l-1.328125 5.25l-1.296875 0l-1.328125 -5.25l0 5.25l-1.25 0zm10.582901 -1.546875l1.28125 0.21875q-0.25 0.703125 -0.78125 1.078125q-0.53125 0.359375 -1.328125 0.359375q-1.265625 0 -1.859375 -0.828125q-0.484375 -0.65625 -0.484375 -1.65625q0 -1.203125 0.625 -1.890625q0.625 -0.6875 1.59375 -0.6875q1.078125 0 1.703125 0.71875q0.625 0.71875 0.59375 2.1875l-3.203125 0q0.015625 0.5625 0.3125 0.890625q0.296875 0.3125 0.734375 0.3125q0.296875 0 0.5 -0.15625q0.203125 -0.171875 0.3125 -0.546875zm0.078125 -1.28125q-0.015625 -0.5625 -0.296875 -0.84375q-0.265625 -0.296875 -0.65625 -0.296875q-0.421875 0 -0.6875 0.3125q-0.28125 0.296875 -0.28125 0.828125l1.921875 0zm1.8597412 1.453125l1.28125 -0.203125q0.078125 0.375 0.328125 0.578125q0.265625 0.1875 0.703125 0.1875q0.5 0 0.75 -0.1875q0.171875 -0.125 0.171875 -0.34375q0 -0.140625 -0.09375 -0.234375q-0.09375 -0.09375 -0.421875 -0.171875q-1.546875 -0.34375 -1.96875 -0.625q-0.578125 -0.390625 -0.578125 -1.09375q0 -0.625 0.5 -1.046875q0.5 -0.4375 1.546875 -0.4375q0.984375 0 1.46875 0.328125q0.484375 0.328125 0.671875 0.953125l-1.21875 0.234375q-0.078125 -0.28125 -0.296875 -0.4375q-0.203125 -0.15625 -0.609375 -0.15625q-0.5 0 -0.71875 0.140625q-0.15625 0.109375 -0.15625 0.265625q0 0.140625 0.140625 0.234375q0.171875 0.125 1.1875 0.359375q1.03125 0.234375 1.4375 0.5625q0.390625 0.34375 0.390625 0.953125q0 0.671875 -0.5625 1.15625q-0.546875 0.46875 -1.640625 0.46875q-0.984375 0 -1.5625 -0.390625q-0.578125 -0.40625 -0.75 -1.09375zm5.187866 0l1.28125 -0.203125q0.078125 0.375 0.328125 0.578125q0.265625 0.1875 0.703125 0.1875q0.5 0 0.75 -0.1875q0.171875 -0.125 0.171875 -0.34375q0 -0.140625 -0.09375 -0.234375q-0.09375 -0.09375 -0.421875 -0.171875q-1.546875 -0.34375 -1.96875 -0.625q-0.578125 -0.390625 -0.578125 -1.09375q0 -0.625 0.5 -1.046875q0.5 -0.4375 1.546875 -0.4375q0.984375 0 1.46875 0.328125q0.484375 0.328125 0.671875 0.953125l-1.21875 0.234375q-0.078125 -0.28125 -0.296875 -0.4375q-0.203125 -0.15625 -0.609375 -0.15625q-0.5 0 -0.71875 0.140625q-0.15625 0.109375 -0.15625 0.265625q0 0.140625 0.140625 0.234375q0.171875 0.125 1.1875 0.359375q1.03125 0.234375 1.4375 0.5625q0.390625 0.34375 0.390625 0.953125q0 0.671875 -0.5625 1.15625q-0.546875 0.46875 -1.640625 0.46875q-0.984375 0 -1.5625 -0.390625q-0.578125 -0.40625 -0.75 -1.09375zm6.594116 -1.984375l-1.15625 -0.21875q0.1875 -0.6875 0.65625 -1.03125q0.484375 -0.34375 1.4375 -0.34375q0.859375 0 1.265625 0.203125q0.421875 0.203125 0.59375 0.515625q0.171875 0.3125 0.171875 1.15625l-0.015625 1.484375q0 0.640625 0.0625 0.953125q0.0625 0.296875 0.234375 0.640625l-1.265625 0q-0.046875 -0.125 -0.125 -0.375q-0.03125 -0.109375 -0.046875 -0.15625q-0.328125 0.328125 -0.703125 0.484375q-0.375 0.15625 -0.796875 0.15625q-0.75 0 -1.1875 -0.40625q-0.421875 -0.40625 -0.421875 -1.03125q0 -0.40625 0.1875 -0.71875q0.203125 -0.328125 0.5625 -0.5q0.359375 -0.171875 1.015625 -0.296875q0.90625 -0.171875 1.25 -0.3125l0 -0.125q0 -0.375 -0.1875 -0.53125q-0.1875 -0.15625 -0.6875 -0.15625q-0.34375 0 -0.53125 0.140625q-0.1875 0.125 -0.3125 0.46875zm1.71875 1.03125q-0.25 0.09375 -0.78125 0.203125q-0.53125 0.109375 -0.703125 0.21875q-0.25 0.1875 -0.25 0.453125q0 0.265625 0.203125 0.46875q0.203125 0.1875 0.515625 0.1875q0.34375 0 0.65625 -0.21875q0.234375 -0.171875 0.296875 -0.421875q0.0625 -0.171875 0.0625 -0.625l0 -0.265625zm2.3909912 2.640625l1.46875 0.1875q0.03125 0.25 0.171875 0.34375q0.171875 0.140625 0.5625 0.140625q0.5 0 0.75 -0.15625q0.171875 -0.09375 0.265625 -0.3125q0.0625 -0.171875 0.0625 -0.59375l0 -0.703125q-0.578125 0.78125 -1.453125 0.78125q-0.984375 0 -1.546875 -0.828125q-0.453125 -0.640625 -0.453125 -1.625q0 -1.203125 0.578125 -1.84375q0.59375 -0.65625 1.46875 -0.65625q0.90625 0 1.484375 0.796875l0 -0.6875l1.1875 0l0 4.34375q0 0.859375 -0.140625 1.28125q-0.140625 0.421875 -0.390625 0.65625q-0.25 0.25 -0.6875 0.390625q-0.421875 0.140625 -1.0625 0.140625q-1.234375 0 -1.75 -0.421875q-0.515625 -0.421875 -0.515625 -1.078125q0 -0.0625 0 -0.15625zm1.140625 -2.828125q0 0.765625 0.296875 1.125q0.3125 0.359375 0.75 0.359375q0.46875 0 0.78125 -0.359375q0.328125 -0.375 0.328125 -1.09375q0 -0.75 -0.3125 -1.109375q-0.3125 -0.375 -0.78125 -0.375q-0.453125 0 -0.765625 0.359375q-0.296875 0.359375 -0.296875 1.09375zm7.479248 0.96875l1.28125 0.21875q-0.25 0.703125 -0.78125 1.078125q-0.53125 0.359375 -1.328125 0.359375q-1.265625 0 -1.859375 -0.828125q-0.484375 -0.65625 -0.484375 -1.65625q0 -1.203125 0.625 -1.890625q0.625 -0.6875 1.59375 -0.6875q1.078125 0 1.703125 0.71875q0.625 0.71875 0.59375 2.1875l-3.203125 0q0.015625 0.5625 0.3125 0.890625q0.296875 0.3125 0.734375 0.3125q0.296875 0 0.5 -0.15625q0.203125 -0.171875 0.3125 -0.546875zm0.078125 -1.28125q-0.015625 -0.5625 -0.296875 -0.84375q-0.265625 -0.296875 -0.65625 -0.296875q-0.421875 0 -0.6875 0.3125q-0.28125 0.296875 -0.28125 0.828125l1.921875 0z" fill-rule="nonzero"/><path fill="#ffffff" d="m604.937 238.34926l0 0c0 -4.888031 3.9625244 -8.850571 8.850586 -8.850571l88.50354 0c2.347351 0 4.5985107 0.9324646 6.258301 2.59227c1.6598511 1.6598053 2.5922852 3.9109802 2.5922852 6.258301l0 35.40123c0 4.888031 -3.9625244 8.850555 -8.850586 8.850555l-88.50354 0c-4.8880615 0 -8.850586 -3.9625244 -8.850586 -8.850555z" fill-rule="evenodd"/><path stroke="#595959" stroke-width="1.0" stroke-linejoin="round" stroke-linecap="butt" d="m604.937 238.34926l0 0c0 -4.888031 3.9625244 -8.850571 8.850586 -8.850571l88.50354 0c2.347351 0 4.5985107 0.9324646 6.258301 2.59227c1.6598511 1.6598053 2.5922852 3.9109802 2.5922852 6.258301l0 35.40123c0 4.888031 -3.9625244 8.850555 -8.850586 8.850555l-88.50354 0c-4.8880615 0 -8.850586 -3.9625244 -8.850586 -8.850555z" fill-rule="evenodd"/><path fill="#000000" d="m638.6701 262.96988l0 -13.35939l5.015625 0q1.53125 0 2.453125 0.40625q0.921875 0.40625 1.4375 1.25q0.53125 0.84375 0.53125 1.765625q0 0.859375 -0.46875 1.625q-0.453125 0.75 -1.390625 1.203125q1.203125 0.35939026 1.859375 1.2187653q0.65625 0.859375 0.65625 2.015625q0 0.9375 -0.40625 1.75q-0.390625 0.796875 -0.984375 1.234375q-0.578125 0.4375 -1.453125 0.671875q-0.875 0.21875 -2.15625 0.21875l-5.09375 0zm1.78125 -7.7500153l2.875 0q1.1875 0 1.6875 -0.140625q0.671875 -0.203125 1.015625 -0.671875q0.34375 -0.46875 0.34375 -1.171875q0 -0.65625 -0.328125 -1.15625q-0.3125 -0.515625 -0.90625 -0.703125q-0.59375 -0.1875 -2.03125 -0.1875l-2.65625 0l0 4.03125zm0 6.1718903l3.3125 0q0.859375 0 1.203125 -0.0625q0.609375 -0.109375 1.015625 -0.359375q0.421875 -0.265625 0.6875 -0.75q0.265625 -0.484375 0.265625 -1.125q0 -0.75 -0.390625 -1.296875q-0.375 -0.546875 -1.0625 -0.765625q-0.671875 -0.234375 -1.953125 -0.234375l-3.078125 0l0 4.59375zm10.6935425 1.578125l0 -13.35939l2.65625 0l3.15625 9.45314q0.4375 1.328125 0.640625 1.984375q0.234375 -0.734375 0.703125 -2.140625l3.203125 -9.29689l2.375 0l0 13.35939l-1.703125 0l0 -11.17189l-3.875 11.17189l-1.59375 0l-3.859375 -11.375015l0 11.375015l-1.703125 0zm25.118958 -4.6875l1.765625 0.453125q-0.5625 2.171875 -2.0 3.328125q-1.4375 1.140625 -3.53125 1.140625q-2.15625 0 -3.515625 -0.875q-1.34375 -0.890625 -2.0625 -2.546875q-0.703125 -1.671875 -0.703125 -3.59375q0 -2.0781403 0.796875 -3.6250153q0.796875 -1.5625 2.265625 -2.359375q1.484375 -0.8125 3.25 -0.8125q2.0 0 3.359375 1.015625q1.375 1.015625 1.90625 2.875l-1.734375 0.40625q-0.46875 -1.453125 -1.359375 -2.109375q-0.875 -0.671875 -2.203125 -0.671875q-1.546875 0 -2.578125 0.734375q-1.03125 0.734375 -1.453125 1.984375q-0.421875 1.234375 -0.421875 2.5625153q0 1.703125 0.5 2.96875q0.5 1.265625 1.546875 1.90625q1.046875 0.625 2.265625 0.625q1.484375 0 2.515625 -0.859375q1.03125 -0.859375 1.390625 -2.546875z" fill-rule="nonzero"/><path fill="#ffffff" d="m686.4803 126.2364l0 0c0 -4.888031 3.9625854 -8.850571 8.850586 -8.850571l88.5036 0c2.34729 0 4.5985107 0.9324722 6.258301 2.59227c1.65979 1.6598053 2.5922852 3.9109879 2.5922852 6.258301l0 35.401222c0 4.888031 -3.9625244 8.850571 -8.850586 8.850571l-88.5036 0c-4.8880005 0 -8.850586 -3.9625397 -8.850586 -8.850571z" fill-rule="evenodd"/><path stroke="#595959" stroke-width="1.0" stroke-linejoin="round" stroke-linecap="butt" d="m686.4803 126.2364l0 0c0 -4.888031 3.9625854 -8.850571 8.850586 -8.850571l88.5036 0c2.34729 0 4.5985107 0.9324722 6.258301 2.59227c1.65979 1.6598053 2.5922852 3.9109879 2.5922852 6.258301l0 35.401222c0 4.888031 -3.9625244 8.850571 -8.850586 8.850571l-88.5036 0c-4.8880005 0 -8.850586 -3.9625397 -8.850586 -8.850571z" fill-rule="evenodd"/><path fill="#000000" d="m720.7281 150.85701l0 -13.359375l5.015625 0q1.53125 0 2.453125 0.40625q0.921875 0.40625 1.4375 1.25q0.53125 0.84375 0.53125 1.765625q0 0.859375 -0.46875 1.625q-0.453125 0.75 -1.390625 1.203125q1.203125 0.359375 1.859375 1.21875q0.65625 0.859375 0.65625 2.015625q0 0.9375 -0.40625 1.75q-0.390625 0.796875 -0.984375 1.234375q-0.578125 0.4375 -1.453125 0.671875q-0.875 0.21875 -2.15625 0.21875l-5.09375 0zm1.78125 -7.75l2.875 0q1.1875 0 1.6875 -0.140625q0.671875 -0.203125 1.015625 -0.671875q0.34375 -0.46875 0.34375 -1.171875q0 -0.65625 -0.328125 -1.15625q-0.3125 -0.515625 -0.90625 -0.703125q-0.59375 -0.1875 -2.03125 -0.1875l-2.65625 0l0 4.03125zm0 6.171875l3.3125 0q0.859375 0 1.203125 -0.0625q0.609375 -0.109375 1.015625 -0.359375q0.421875 -0.265625 0.6875 -0.75q0.265625 -0.484375 0.265625 -1.125q0 -0.75 -0.390625 -1.296875q-0.375 -0.546875 -1.0625 -0.765625q-0.671875 -0.234375 -1.953125 -0.234375l-3.078125 0l0 4.59375zm10.6935425 1.578125l0 -13.359375l2.65625 0l3.15625 9.453125q0.4375 1.328125 0.640625 1.984375q0.234375 -0.734375 0.703125 -2.140625l3.203125 -9.296875l2.375 0l0 13.359375l-1.703125 0l0 -11.171875l-3.875 11.171875l-1.59375 0l-3.859375 -11.375l0 11.375l-1.703125 0zm19.400208 0l-5.171875 -13.359375l1.921875 0l3.46875 9.703125q0.421875 1.171875 0.703125 2.1875q0.3125 -1.09375 0.71875 -2.1875l3.609375 -9.703125l1.796875 0l-5.234375 13.359375l-1.8125 0z" fill-rule="nonzero"/><path fill="#ffffff" d="m521.4803 126.2364l0 0c0 -4.888031 3.9625854 -8.850571 8.850586 -8.850571l88.5036 0c2.34729 0 4.5985107 0.9324722 6.258301 2.59227c1.65979 1.6598053 2.5922852 3.9109879 2.5922852 6.258301l0 35.401222c0 4.888031 -3.9625244 8.850571 -8.850586 8.850571l-88.5036 0c-4.8880005 0 -8.850586 -3.9625397 -8.850586 -8.850571z" fill-rule="evenodd"/><path stroke="#595959" stroke-width="1.0" stroke-linejoin="round" stroke-linecap="butt" d="m521.4803 126.2364l0 0c0 -4.888031 3.9625854 -8.850571 8.850586 -8.850571l88.5036 0c2.34729 0 4.5985107 0.9324722 6.258301 2.59227c1.65979 1.6598053 2.5922852 3.9109879 2.5922852 6.258301l0 35.401222c0 4.888031 -3.9625244 8.850571 -8.850586 8.850571l-88.5036 0c-4.8880005 0 -8.850586 -3.9625397 -8.850586 -8.850571z" fill-rule="evenodd"/><path fill="#000000" d="m556.762 150.85701l0 -13.359375l5.015625 0q1.53125 0 2.453125 0.40625q0.921875 0.40625 1.4375 1.25q0.53125 0.84375 0.53125 1.765625q0 0.859375 -0.46875 1.625q-0.453125 0.75 -1.390625 1.203125q1.203125 0.359375 1.859375 1.21875q0.65625 0.859375 0.65625 2.015625q0 0.9375 -0.40625 1.75q-0.390625 0.796875 -0.984375 1.234375q-0.578125 0.4375 -1.453125 0.671875q-0.875 0.21875 -2.15625 0.21875l-5.09375 0zm1.78125 -7.75l2.875 0q1.1875 0 1.6875 -0.140625q0.671875 -0.203125 1.015625 -0.671875q0.34375 -0.46875 0.34375 -1.171875q0 -0.65625 -0.328125 -1.15625q-0.3125 -0.515625 -0.90625 -0.703125q-0.59375 -0.1875 -2.03125 -0.1875l-2.65625 0l0 4.03125zm0 6.171875l3.3125 0q0.859375 0 1.203125 -0.0625q0.609375 -0.109375 1.015625 -0.359375q0.421875 -0.265625 0.6875 -0.75q0.265625 -0.484375 0.265625 -1.125q0 -0.75 -0.390625 -1.296875q-0.375 -0.546875 -1.0625 -0.765625q-0.671875 -0.234375 -1.953125 -0.234375l-3.078125 0l0 4.59375zm10.1466675 -2.71875l1.65625 -0.140625q0.125 1.0 0.546875 1.640625q0.4375 0.640625 1.34375 1.046875q0.921875 0.390625 2.0625 0.390625q1.0 0 1.78125 -0.296875q0.78125 -0.296875 1.15625 -0.8125q0.375 -0.53125 0.375 -1.15625q0 -0.625 -0.375 -1.09375q-0.359375 -0.46875 -1.1875 -0.796875q-0.546875 -0.203125 -2.390625 -0.640625q-1.828125 -0.453125 -2.5625 -0.84375q-0.96875 -0.5 -1.4375 -1.234375q-0.46875 -0.75 -0.46875 -1.671875q0 -1.0 0.578125 -1.875q0.578125 -0.890625 1.671875 -1.34375q1.109375 -0.453125 2.453125 -0.453125q1.484375 0 2.609375 0.484375q1.140625 0.46875 1.75 1.40625q0.609375 0.921875 0.65625 2.09375l-1.6875 0.125q-0.140625 -1.265625 -0.9375 -1.90625q-0.78125 -0.65625 -2.3125 -0.65625q-1.609375 0 -2.34375 0.59375q-0.734375 0.59375 -0.734375 1.421875q0 0.71875 0.53125 1.171875q0.5 0.46875 2.65625 0.96875q2.15625 0.484375 2.953125 0.84375q1.171875 0.53125 1.71875 1.359375q0.5625 0.828125 0.5625 1.90625q0 1.0625 -0.609375 2.015625q-0.609375 0.9375 -1.75 1.46875q-1.140625 0.515625 -2.578125 0.515625q-1.8125 0 -3.046875 -0.53125q-1.21875 -0.53125 -1.921875 -1.59375q-0.6875 -1.0625 -0.71875 -2.40625zm13.0998535 4.296875l0 -13.359375l1.765625 0l0 5.484375l6.9375 0l0 -5.484375l1.765625 0l0 13.359375l-1.765625 0l0 -6.296875l-6.9375 0l0 6.296875l-1.765625 0z" fill-rule="nonzero"/><path fill="#000000" fill-opacity="0.0" d="m658.03937 229.49869c0 -42.7874 -15.181091 -85.5748 -30.362183 -85.5748" fill-rule="evenodd"/><path stroke="#595959" stroke-width="1.0" stroke-linejoin="round" stroke-linecap="butt" d="m658.03937 229.49869c0 -21.393707 -3.795288 -42.7874 -9.488159 -58.832672c-2.8464966 -8.022644 -6.1673584 -14.708176 -9.725403 -19.388046c-0.88952637 -1.1699677 -1.7938843 -2.2145844 -2.7093506 -3.1233978c-0.45770264 -0.45440674 -0.9182739 -0.8748627 -1.3810425 -1.2600555c-0.23144531 -0.1926117 -0.46343994 -0.3764038 -0.69592285 -0.5512085c-0.11627197 -0.087402344 -0.23266602 -0.17256165 -0.34918213 -0.25546265l-0.33325195 -0.23036194" fill-rule="evenodd"/><path fill="#595959" stroke="#595959" stroke-width="1.0" stroke-linecap="butt" d="m633.88934 144.29387l-4.828247 0.101135254l3.7636719 3.0260773z" fill-rule="evenodd"/><path fill="#000000" fill-opacity="0.0" d="m574.5827 170.48819c0 42.7874 15.181091 85.5748 30.362183 85.5748" fill-rule="evenodd"/><path stroke="#595959" stroke-width="1.0" stroke-linejoin="round" stroke-linecap="butt" d="m574.5827 170.48819c0 21.393707 3.795227 42.7874 9.488159 58.832672c2.8464355 8.022644 6.1672974 14.708176 9.725403 19.388046c0.88952637 1.1699677 1.7938843 2.2145844 2.7092896 3.1233978c0.45776367 0.45439148 0.9182739 0.8748627 1.3811035 1.2600708c0.23138428 0.19258118 0.4633789 0.3763733 0.69592285 0.551178c0.11621094 0.0874176 0.23260498 0.1725769 0.3491211 0.2554779l0.33325195 0.2303772" fill-rule="evenodd"/><path fill="#595959" stroke="#595959" stroke-width="1.0" stroke-linecap="butt" d="m598.73267 255.69301l4.828308 -0.101135254l-3.7636719 -3.0260773z" fill-rule="evenodd"/><path fill="#000000" fill-opacity="0.0" d="m711.1417 256.04987c14.220459 0 28.440979 -42.7874 28.440979 -85.5748" fill-rule="evenodd"/><path stroke="#595959" stroke-width="1.0" stroke-linejoin="round" stroke-linecap="butt" d="m711.1417 256.04987c7.1102295 0 14.220459 -10.696854 19.553162 -26.742126c2.6663208 -8.022629 4.8883057 -17.382385 6.4436646 -27.410675c0.7776489 -5.014145 1.3886719 -10.195435 1.8053589 -15.460297c0.20825195 -2.632431 0.36791992 -5.2857513 0.47564697 -7.9495087c0.026855469 -0.66593933 0.05053711 -1.33255 0.07086182 -1.9996185l3.6621094E-4 -0.0132751465" fill-rule="evenodd"/><path fill="#595959" stroke="#595959" stroke-width="1.0" stroke-linecap="butt" d="m741.14233 176.49966l-1.5820312 -4.562866l-1.7210693 4.512268z" fill-rule="evenodd"/><path fill="#ffff00" d="m719.9921 192.42783l106.20471 0l0 37.07086l-106.20471 0z" fill-rule="evenodd"/><path stroke="#595959" stroke-width="1.0" stroke-linejoin="round" stroke-linecap="butt" d="m719.9921 192.42783l106.20471 0l0 37.07086l-106.20471 0z" fill-rule="evenodd"/><path fill="#000000" d="m729.414 201.7045l1.265625 -0.125q0.0625 0.421875 0.328125 0.6875q0.265625 0.25 0.609375 0.25q0.40625 0 0.6875 -0.328125q0.28125 -0.328125 0.28125 -0.984375q0 -0.609375 -0.28125 -0.921875q-0.28125 -0.3125 -0.71875 -0.3125q-0.546875 0 -0.984375 0.5l-1.046875 -0.15625l0.65625 -3.484375l3.390625 0l0 1.203125l-2.40625 0l-0.203125 1.140625q0.421875 -0.21875 0.875 -0.21875q0.84375 0 1.4375 0.625q0.59375 0.609375 0.59375 1.609375q0 0.8125 -0.484375 1.46875q-0.640625 0.875 -1.796875 0.875q-0.9375 0 -1.515625 -0.484375q-0.578125 -0.5 -0.6875 -1.34375zm5.078491 3.6875q0.375 -0.8125 0.53125 -1.25q0.15625 -0.4375 0.28125 -1.0q0.140625 -0.5625 0.203125 -1.0625q0.0625 -0.515625 0.0625 -1.046875q0 -1.078125 -0.234375 -2.046875q-0.234375 -0.96875 -0.84375 -2.359375l0.859375 0q0.6875 0.984375 1.0625 2.09375q0.390625 1.09375 0.390625 2.21875q0 0.953125 -0.296875 2.03125q-0.34375 1.234375 -1.125 2.421875l-0.890625 0zm7.760498 -1.96875l-2.375 -6.671875l1.453125 0l1.6875 4.9375l1.640625 -4.9375l1.4375 0l-2.390625 6.671875l-1.453125 0zm4.5186768 0l0 -6.671875l4.953125 0l0 1.125l-3.59375 0l0 1.484375l3.34375 0l0 1.125l-3.34375 0l0 1.8125l3.71875 0l0 1.125l-5.078125 0zm6.2373657 0l0 -6.671875l2.828125 0q1.078125 0 1.5625 0.1875q0.484375 0.171875 0.765625 0.640625q0.296875 0.453125 0.296875 1.03125q0 0.765625 -0.4375 1.25q-0.4375 0.484375 -1.328125 0.609375q0.4375 0.265625 0.71875 0.578125q0.296875 0.296875 0.78125 1.078125l0.8125 1.296875l-1.609375 0l-0.984375 -1.453125q-0.515625 -0.78125 -0.703125 -0.984375q-0.1875 -0.203125 -0.40625 -0.265625q-0.21875 -0.078125 -0.671875 -0.078125l-0.28125 0l0 2.78125l-1.34375 0zm1.34375 -3.859375l1.0 0q0.96875 0 1.203125 -0.078125q0.25 -0.078125 0.375 -0.28125q0.140625 -0.203125 0.140625 -0.5q0 -0.34375 -0.1875 -0.546875q-0.171875 -0.203125 -0.5 -0.265625q-0.15625 -0.015625 -0.984375 -0.015625l-1.046875 0l0 1.6875zm5.345886 3.859375l0 -6.671875l1.34375 0l0 6.671875l-1.34375 0zm2.6385498 0l0 -6.671875l4.578125 0l0 1.125l-3.234375 0l0 1.578125l2.796875 0l0 1.125l-2.796875 0l0 2.84375l-1.34375 0zm7.447998 0l0 -2.8125l-2.453125 -3.859375l1.578125 0l1.578125 2.640625l1.53125 -2.640625l1.5625 0l-2.453125 3.875l0 2.796875l-1.34375 0zm12.801025 -0.8125l-0.78125 0.984375q-0.5625 -0.28125 -1.09375 -0.765625q-0.40625 0.359375 -0.859375 0.546875q-0.453125 0.171875 -1.078125 0.171875q-1.25 0 -1.890625 -0.703125q-0.484375 -0.546875 -0.484375 -1.25q0 -0.640625 0.375 -1.15625q0.390625 -0.515625 1.15625 -0.890625q-0.34375 -0.40625 -0.515625 -0.765625q-0.171875 -0.375 -0.171875 -0.703125q0 -0.609375 0.484375 -1.03125q0.484375 -0.421875 1.375 -0.421875q0.875 0 1.359375 0.453125q0.484375 0.4375 0.484375 1.078125q0 0.40625 -0.25 0.765625q-0.234375 0.359375 -0.96875 0.828125l0.9375 1.21875q0.15625 -0.28125 0.28125 -0.765625l1.15625 0.265625q-0.171875 0.625 -0.296875 0.90625q-0.125 0.28125 -0.28125 0.46875q0.21875 0.203125 0.546875 0.453125q0.34375 0.234375 0.515625 0.3125zm-3.484375 -3.640625l0.34375 -0.25q0.375 -0.296875 0.375 -0.59375q0 -0.25 -0.1875 -0.421875q-0.171875 -0.171875 -0.5 -0.171875q-0.296875 0 -0.46875 0.15625q-0.171875 0.15625 -0.171875 0.34375q0 0.25 0.28125 0.578125l0.328125 0.359375zm-0.515625 1.390625q-0.4375 0.234375 -0.65625 0.546875q-0.21875 0.3125 -0.21875 0.640625q0 0.40625 0.265625 0.671875q0.28125 0.265625 0.734375 0.265625q0.296875 0 0.578125 -0.109375q0.28125 -0.125 0.609375 -0.40625l-1.3125 -1.609375z" fill-rule="nonzero"/><path fill="#000000" d="m729.664 207.75137l2.46875 0q0.828125 0 1.265625 0.125q0.59375 0.171875 1.0 0.609375q0.421875 0.4375 0.640625 1.078125q0.21875 0.640625 0.21875 1.578125q0 0.828125 -0.203125 1.421875q-0.25 0.734375 -0.703125 1.1875q-0.359375 0.34375 -0.953125 0.53125q-0.453125 0.140625 -1.1875 0.140625l-2.546875 0l0 -6.671875zm1.34375 1.125l0 4.421875l1.015625 0q0.5625 0 0.8125 -0.0625q0.328125 -0.078125 0.546875 -0.265625q0.21875 -0.203125 0.34375 -0.65625q0.140625 -0.453125 0.140625 -1.21875q0 -0.78125 -0.140625 -1.1875q-0.125 -0.421875 -0.375 -0.65625q-0.25 -0.234375 -0.625 -0.3125q-0.28125 -0.0625 -1.109375 -0.0625l-0.609375 0zm5.3927 5.546875l0 -6.671875l4.953125 0l0 1.125l-3.59375 0l0 1.484375l3.34375 0l0 1.125l-3.34375 0l0 1.8125l3.71875 0l0 1.125l-5.078125 0zm10.503052 -2.453125l1.3125 0.40625q-0.3125 1.09375 -1.015625 1.625q-0.6875 0.53125 -1.765625 0.53125q-1.328125 0 -2.1875 -0.90625q-0.859375 -0.90625 -0.859375 -2.484375q0 -1.671875 0.859375 -2.59375q0.859375 -0.921875 2.265625 -0.921875q1.234375 0 2.0 0.734375q0.453125 0.421875 0.671875 1.21875l-1.328125 0.328125q-0.125 -0.515625 -0.5 -0.8125q-0.375 -0.3125 -0.90625 -0.3125q-0.75 0 -1.21875 0.53125q-0.453125 0.53125 -0.453125 1.734375q0 1.265625 0.453125 1.8125q0.453125 0.53125 1.1875 0.53125q0.546875 0 0.921875 -0.34375q0.390625 -0.34375 0.5625 -1.078125zm2.1896362 -0.84375q0 -1.015625 0.296875 -1.71875q0.234375 -0.5 0.625 -0.90625q0.390625 -0.40625 0.875 -0.609375q0.609375 -0.265625 1.4375 -0.265625q1.46875 0 2.34375 0.921875q0.890625 0.921875 0.890625 2.546875q0 1.609375 -0.875 2.53125q-0.875 0.90625 -2.34375 0.90625q-1.5 0 -2.375 -0.90625q-0.875 -0.90625 -0.875 -2.5zm1.390625 -0.046875q0 1.140625 0.515625 1.734375q0.53125 0.578125 1.328125 0.578125q0.8125 0 1.328125 -0.578125q0.515625 -0.59375 0.515625 -1.75q0 -1.15625 -0.5 -1.71875q-0.5 -0.5625 -1.34375 -0.5625q-0.828125 0 -1.34375 0.578125q-0.5 0.5625 -0.5 1.71875zm6.1306763 -3.328125l2.46875 0q0.828125 0 1.265625 0.125q0.59375 0.171875 1.0 0.609375q0.421875 0.4375 0.640625 1.078125q0.21875 0.640625 0.21875 1.578125q0 0.828125 -0.203125 1.421875q-0.25 0.734375 -0.703125 1.1875q-0.359375 0.34375 -0.953125 0.53125q-0.453125 0.140625 -1.1875 0.140625l-2.546875 0l0 -6.671875zm1.34375 1.125l0 4.421875l1.015625 0q0.5625 0 0.8125 -0.0625q0.328125 -0.078125 0.546875 -0.265625q0.21875 -0.203125 0.34375 -0.65625q0.140625 -0.453125 0.140625 -1.21875q0 -0.78125 -0.140625 -1.1875q-0.125 -0.421875 -0.375 -0.65625q-0.25 -0.234375 -0.625 -0.3125q-0.28125 -0.0625 -1.109375 -0.0625l-0.609375 0zm5.392761 5.546875l0 -6.671875l4.953125 0l0 1.125l-3.59375 0l0 1.484375l3.34375 0l0 1.125l-3.34375 0l0 1.8125l3.71875 0l0 1.125l-5.078125 0z" fill-rule="nonzero"/><path fill="#000000" d="m729.6796 225.42325l0 -6.671875l2.828125 0q1.078125 0 1.5625 0.1875q0.484375 0.171875 0.765625 0.640625q0.296875 0.453125 0.296875 1.03125q0 0.765625 -0.4375 1.25q-0.4375 0.484375 -1.328125 0.609375q0.4375 0.265625 0.71875 0.578125q0.296875 0.296875 0.78125 1.078125l0.8125 1.296875l-1.609375 0l-0.984375 -1.453125q-0.515625 -0.78125 -0.703125 -0.984375q-0.1875 -0.203125 -0.40625 -0.265625q-0.21875 -0.078125 -0.671875 -0.078125l-0.28125 0l0 2.78125l-1.34375 0zm1.34375 -3.859375l1.0 0q0.96875 0 1.203125 -0.078125q0.25 -0.078125 0.375 -0.28125q0.140625 -0.203125 0.140625 -0.5q0 -0.34375 -0.1875 -0.546875q-0.171875 -0.203125 -0.5 -0.265625q-0.15625 -0.015625 -0.984375 -0.015625l-1.046875 0l0 1.6875zm8.17395 2.3125l1.28125 0.21875q-0.25 0.703125 -0.78125 1.078125q-0.53125 0.359375 -1.328125 0.359375q-1.265625 0 -1.859375 -0.828125q-0.484375 -0.65625 -0.484375 -1.65625q0 -1.203125 0.625 -1.890625q0.625 -0.6875 1.59375 -0.6875q1.078125 0 1.703125 0.71875q0.625 0.71875 0.59375 2.1875l-3.203125 0q0.015625 0.5625 0.3125 0.890625q0.296875 0.3125 0.734375 0.3125q0.296875 0 0.5 -0.15625q0.203125 -0.171875 0.3125 -0.546875zm0.078125 -1.28125q-0.015625 -0.5625 -0.296875 -0.84375q-0.265625 -0.296875 -0.65625 -0.296875q-0.421875 0 -0.6875 0.3125q-0.28125 0.296875 -0.28125 0.828125l1.921875 0zm2.3128662 2.828125l0 -6.671875l1.28125 0l0 6.671875l-1.28125 0zm3.5447998 -3.359375l-1.15625 -0.21875q0.1875 -0.6875 0.65625 -1.03125q0.484375 -0.34375 1.4375 -0.34375q0.859375 0 1.265625 0.203125q0.421875 0.203125 0.59375 0.515625q0.171875 0.3125 0.171875 1.15625l-0.015625 1.484375q0 0.640625 0.0625 0.953125q0.0625 0.296875 0.234375 0.640625l-1.265625 0q-0.046875 -0.125 -0.125 -0.375q-0.03125 -0.109375 -0.046875 -0.15625q-0.328125 0.328125 -0.703125 0.484375q-0.375 0.15625 -0.796875 0.15625q-0.75 0 -1.1875 -0.40625q-0.421875 -0.40625 -0.421875 -1.03125q0 -0.40625 0.1875 -0.71875q0.203125 -0.328125 0.5625 -0.5q0.359375 -0.171875 1.015625 -0.296875q0.90625 -0.171875 1.25 -0.3125l0 -0.125q0 -0.375 -0.1875 -0.53125q-0.1875 -0.15625 -0.6875 -0.15625q-0.34375 0 -0.53125 0.140625q-0.1875 0.125 -0.3125 0.46875zm1.71875 1.03125q-0.25 0.09375 -0.78125 0.203125q-0.53125 0.109375 -0.703125 0.21875q-0.25 0.1875 -0.25 0.453125q0 0.265625 0.203125 0.46875q0.203125 0.1875 0.515625 0.1875q0.34375 0 0.65625 -0.21875q0.234375 -0.171875 0.296875 -0.421875q0.0625 -0.171875 0.0625 -0.625l0 -0.265625zm1.9066162 -2.515625l1.359375 0l1.15625 3.4375l1.140625 -3.4375l1.3125 0l-1.703125 4.65625l-0.296875 0.84375q-0.171875 0.421875 -0.328125 0.640625q-0.15625 0.234375 -0.359375 0.375q-0.1875 0.140625 -0.484375 0.21875q-0.28125 0.078125 -0.640625 0.078125q-0.375 0 -0.734375 -0.078125l-0.109375 -1.0q0.296875 0.046875 0.546875 0.046875q0.4375 0 0.65625 -0.265625q0.21875 -0.25 0.328125 -0.65625l-1.84375 -4.859375zm5.781616 4.84375l0 -6.671875l2.015625 0l1.21875 4.546875l1.203125 -4.546875l2.015625 0l0 6.671875l-1.25 0l0 -5.25l-1.328125 5.25l-1.296875 0l-1.328125 -5.25l0 5.25l-1.25 0zm10.582886 -1.546875l1.28125 0.21875q-0.25 0.703125 -0.78125 1.078125q-0.53125 0.359375 -1.328125 0.359375q-1.265625 0 -1.859375 -0.828125q-0.484375 -0.65625 -0.484375 -1.65625q0 -1.203125 0.625 -1.890625q0.625 -0.6875 1.59375 -0.6875q1.078125 0 1.703125 0.71875q0.625 0.71875 0.59375 2.1875l-3.203125 0q0.015625 0.5625 0.3125 0.890625q0.296875 0.3125 0.734375 0.3125q0.296875 0 0.5 -0.15625q0.203125 -0.171875 0.3125 -0.546875zm0.078125 -1.28125q-0.015625 -0.5625 -0.296875 -0.84375q-0.265625 -0.296875 -0.65625 -0.296875q-0.421875 0 -0.6875 0.3125q-0.28125 0.296875 -0.28125 0.828125l1.921875 0zm1.8597412 1.453125l1.28125 -0.203125q0.078125 0.375 0.328125 0.578125q0.265625 0.1875 0.703125 0.1875q0.5 0 0.75 -0.1875q0.171875 -0.125 0.171875 -0.34375q0 -0.140625 -0.09375 -0.234375q-0.09375 -0.09375 -0.421875 -0.171875q-1.546875 -0.34375 -1.96875 -0.625q-0.578125 -0.390625 -0.578125 -1.09375q0 -0.625 0.5 -1.046875q0.5 -0.4375 1.546875 -0.4375q0.984375 0 1.46875 0.328125q0.484375 0.328125 0.671875 0.953125l-1.21875 0.234375q-0.078125 -0.28125 -0.296875 -0.4375q-0.203125 -0.15625 -0.609375 -0.15625q-0.5 0 -0.71875 0.140625q-0.15625 0.109375 -0.15625 0.265625q0 0.140625 0.140625 0.234375q0.171875 0.125 1.1875 0.359375q1.03125 0.234375 1.4375 0.5625q0.390625 0.34375 0.390625 0.953125q0 0.671875 -0.5625 1.15625q-0.546875 0.46875 -1.640625 0.46875q-0.984375 0 -1.5625 -0.390625q-0.578125 -0.40625 -0.75 -1.09375zm5.187866 0l1.28125 -0.203125q0.078125 0.375 0.328125 0.578125q0.265625 0.1875 0.703125 0.1875q0.5 0 0.75 -0.1875q0.171875 -0.125 0.171875 -0.34375q0 -0.140625 -0.09375 -0.234375q-0.09375 -0.09375 -0.421875 -0.171875q-1.546875 -0.34375 -1.96875 -0.625q-0.578125 -0.390625 -0.578125 -1.09375q0 -0.625 0.5 -1.046875q0.5 -0.4375 1.546875 -0.4375q0.984375 0 1.46875 0.328125q0.484375 0.328125 0.671875 0.953125l-1.21875 0.234375q-0.078125 -0.28125 -0.296875 -0.4375q-0.203125 -0.15625 -0.609375 -0.15625q-0.5 0 -0.71875 0.140625q-0.15625 0.109375 -0.15625 0.265625q0 0.140625 0.140625 0.234375q0.171875 0.125 1.1875 0.359375q1.03125 0.234375 1.4375 0.5625q0.390625 0.34375 0.390625 0.953125q0 0.671875 -0.5625 1.15625q-0.546875 0.46875 -1.640625 0.46875q-0.984375 0 -1.5625 -0.390625q-0.578125 -0.40625 -0.75 -1.09375zm6.594116 -1.984375l-1.15625 -0.21875q0.1875 -0.6875 0.65625 -1.03125q0.484375 -0.34375 1.4375 -0.34375q0.859375 0 1.265625 0.203125q0.421875 0.203125 0.59375 0.515625q0.171875 0.3125 0.171875 1.15625l-0.015625 1.484375q0 0.640625 0.0625 0.953125q0.0625 0.296875 0.234375 0.640625l-1.265625 0q-0.046875 -0.125 -0.125 -0.375q-0.03125 -0.109375 -0.046875 -0.15625q-0.328125 0.328125 -0.703125 0.484375q-0.375 0.15625 -0.796875 0.15625q-0.75 0 -1.1875 -0.40625q-0.421875 -0.40625 -0.421875 -1.03125q0 -0.40625 0.1875 -0.71875q0.203125 -0.328125 0.5625 -0.5q0.359375 -0.171875 1.015625 -0.296875q0.90625 -0.171875 1.25 -0.3125l0 -0.125q0 -0.375 -0.1875 -0.53125q-0.1875 -0.15625 -0.6875 -0.15625q-0.34375 0 -0.53125 0.140625q-0.1875 0.125 -0.3125 0.46875zm1.71875 1.03125q-0.25 0.09375 -0.78125 0.203125q-0.53125 0.109375 -0.703125 0.21875q-0.25 0.1875 -0.25 0.453125q0 0.265625 0.203125 0.46875q0.203125 0.1875 0.515625 0.1875q0.34375 0 0.65625 -0.21875q0.234375 -0.171875 0.296875 -0.421875q0.0625 -0.171875 0.0625 -0.625l0 -0.265625zm2.3909912 2.640625l1.46875 0.1875q0.03125 0.25 0.171875 0.34375q0.171875 0.140625 0.5625 0.140625q0.5 0 0.75 -0.15625q0.171875 -0.09375 0.265625 -0.3125q0.0625 -0.171875 0.0625 -0.59375l0 -0.703125q-0.578125 0.78125 -1.453125 0.78125q-0.984375 0 -1.546875 -0.828125q-0.453125 -0.640625 -0.453125 -1.625q0 -1.203125 0.578125 -1.84375q0.59375 -0.65625 1.46875 -0.65625q0.90625 0 1.484375 0.796875l0 -0.6875l1.1875 0l0 4.34375q0 0.859375 -0.140625 1.28125q-0.140625 0.421875 -0.390625 0.65625q-0.25 0.25 -0.6875 0.390625q-0.421875 0.140625 -1.0625 0.140625q-1.234375 0 -1.75 -0.421875q-0.515625 -0.421875 -0.515625 -1.078125q0 -0.0625 0 -0.15625zm1.140625 -2.828125q0 0.765625 0.296875 1.125q0.3125 0.359375 0.75 0.359375q0.46875 0 0.78125 -0.359375q0.328125 -0.375 0.328125 -1.09375q0 -0.75 -0.3125 -1.109375q-0.3125 -0.375 -0.78125 -0.375q-0.453125 0 -0.765625 0.359375q-0.296875 0.359375 -0.296875 1.09375zm7.479248 0.96875l1.28125 0.21875q-0.25 0.703125 -0.78125 1.078125q-0.53125 0.359375 -1.328125 0.359375q-1.265625 0 -1.859375 -0.828125q-0.484375 -0.65625 -0.484375 -1.65625q0 -1.203125 0.625 -1.890625q0.625 -0.6875 1.59375 -0.6875q1.078125 0 1.703125 0.71875q0.625 0.71875 0.59375 2.1875l-3.203125 0q0.015625 0.5625 0.3125 0.890625q0.296875 0.3125 0.734375 0.3125q0.296875 0 0.5 -0.15625q0.203125 -0.171875 0.3125 -0.546875zm0.078125 -1.28125q-0.015625 -0.5625 -0.296875 -0.84375q-0.265625 -0.296875 -0.65625 -0.296875q-0.421875 0 -0.6875 0.3125q-0.28125 0.296875 -0.28125 0.828125l1.921875 0z" fill-rule="nonzero"/><path fill="#ffff00" d="m610.1837 181.45932l99.4646 0l0 30.29921l-99.4646 0z" fill-rule="evenodd"/><path stroke="#595959" stroke-width="1.0" stroke-linejoin="round" stroke-linecap="butt" d="m610.1837 181.45932l99.4646 0l0 30.29921l-99.4646 0z" fill-rule="evenodd"/><path fill="#000000" d="m623.9181 189.52205l-1.234375 0.140625q-0.046875 -0.375 -0.25 -0.5625q-0.1875 -0.1875 -0.484375 -0.1875q-0.40625 0 -0.6875 0.375q-0.28125 0.359375 -0.359375 1.515625q0.484375 -0.578125 1.1875 -0.578125q0.8125 0 1.375 0.625q0.578125 0.609375 0.578125 1.5625q0 1.03125 -0.609375 1.65625q-0.59375 0.609375 -1.546875 0.609375q-1.0 0 -1.65625 -0.78125q-0.65625 -0.78125 -0.65625 -2.578125q0 -1.828125 0.671875 -2.640625q0.6875 -0.8125 1.78125 -0.8125q0.75 0 1.25 0.421875q0.5 0.421875 0.640625 1.234375zm-2.90625 2.796875q0 0.625 0.28125 0.96875q0.296875 0.328125 0.671875 0.328125q0.34375 0 0.578125 -0.265625q0.25 -0.28125 0.25 -0.921875q0 -0.640625 -0.265625 -0.9375q-0.25 -0.3125 -0.640625 -0.3125q-0.359375 0 -0.625 0.296875q-0.25 0.28125 -0.25 0.84375zm3.6722412 4.21875q0.375 -0.8125 0.53125 -1.25q0.15625 -0.4375 0.28125 -1.0q0.140625 -0.5625 0.203125 -1.0625q0.0625 -0.515625 0.0625 -1.046875q0 -1.078125 -0.234375 -2.046875q-0.234375 -0.96875 -0.84375 -2.359375l0.859375 0q0.6875 0.984375 1.0625 2.09375q0.390625 1.09375 0.390625 2.21875q0 0.953125 -0.296875 2.03125q-0.34375 1.234375 -1.125 2.421875l-0.890625 0zm6.072998 -1.96875l0 -6.671875l1.34375 0l0 2.625l2.640625 0l0 -2.625l1.34375 0l0 6.671875l-1.34375 0l0 -2.921875l-2.640625 0l0 2.921875l-1.34375 0zm12.752136 0l-1.46875 0l-0.578125 -1.515625l-2.671875 0l-0.546875 1.515625l-1.4375 0l2.59375 -6.671875l1.4375 0l2.671875 6.671875zm-2.484375 -2.640625l-0.921875 -2.484375l-0.90625 2.484375l1.828125 0zm3.2052002 2.640625l0 -6.671875l1.3125 0l2.734375 4.453125l0 -4.453125l1.25 0l0 6.671875l-1.34375 0l-2.703125 -4.359375l0 4.359375l-1.25 0zm6.720886 -6.671875l2.46875 0q0.828125 0 1.265625 0.125q0.59375 0.171875 1.0 0.609375q0.421875 0.4375 0.640625 1.078125q0.21875 0.640625 0.21875 1.578125q0 0.828125 -0.203125 1.421875q-0.25 0.734375 -0.703125 1.1875q-0.359375 0.34375 -0.953125 0.53125q-0.453125 0.140625 -1.1875 0.140625l-2.546875 0l0 -6.671875zm1.34375 1.125l0 4.421875l1.015625 0q0.5625 0 0.8125 -0.0625q0.328125 -0.078125 0.546875 -0.265625q0.21875 -0.203125 0.34375 -0.65625q0.140625 -0.453125 0.140625 -1.21875q0 -0.78125 -0.140625 -1.1875q-0.125 -0.421875 -0.375 -0.65625q-0.25 -0.234375 -0.625 -0.3125q-0.28125 -0.0625 -1.109375 -0.0625l-0.609375 0zm5.439575 5.546875l0 -6.625l1.34375 0l0 5.5l3.359375 0l0 1.125l-4.703125 0zm5.651123 0l0 -6.671875l4.953125 0l0 1.125l-3.59375 0l0 1.484375l3.34375 0l0 1.125l-3.34375 0l0 1.8125l3.71875 0l0 1.125l-5.078125 0z" fill-rule="nonzero"/><path fill="#000000" d="m619.52747 203.39705l1.3125 -0.125q0.109375 0.65625 0.46875 0.96875q0.359375 0.3125 0.984375 0.3125q0.640625 0 0.96875 -0.28125q0.34375 -0.28125 0.34375 -0.640625q0 -0.234375 -0.140625 -0.40625q-0.140625 -0.171875 -0.484375 -0.28125q-0.234375 -0.09375 -1.078125 -0.296875q-1.09375 -0.265625 -1.53125 -0.65625q-0.609375 -0.5625 -0.609375 -1.34375q0 -0.515625 0.28125 -0.953125q0.296875 -0.453125 0.84375 -0.6875q0.546875 -0.234375 1.3125 -0.234375q1.25 0 1.890625 0.5625q0.640625 0.546875 0.671875 1.46875l-1.34375 0.0625q-0.09375 -0.515625 -0.375 -0.734375q-0.28125 -0.234375 -0.859375 -0.234375q-0.59375 0 -0.921875 0.234375q-0.203125 0.15625 -0.203125 0.421875q0 0.234375 0.1875 0.40625q0.265625 0.203125 1.25 0.4375q0.984375 0.234375 1.453125 0.484375q0.46875 0.25 0.734375 0.6875q0.265625 0.421875 0.265625 1.0625q0 0.5625 -0.328125 1.0625q-0.3125 0.5 -0.890625 0.75q-0.578125 0.25 -1.453125 0.25q-1.265625 0 -1.953125 -0.578125q-0.671875 -0.59375 -0.796875 -1.71875zm9.346802 0.625l1.28125 0.21875q-0.25 0.703125 -0.78125 1.078125q-0.53125 0.359375 -1.328125 0.359375q-1.265625 0 -1.859375 -0.828125q-0.484375 -0.65625 -0.484375 -1.65625q0 -1.203125 0.625 -1.890625q0.625 -0.6875 1.59375 -0.6875q1.078125 0 1.703125 0.71875q0.625 0.71875 0.59375 2.1875l-3.203125 0q0.015625 0.5625 0.3125 0.890625q0.296875 0.3125 0.734375 0.3125q0.296875 0 0.5 -0.15625q0.203125 -0.171875 0.3125 -0.546875zm0.078125 -1.28125q-0.015625 -0.5625 -0.296875 -0.84375q-0.265625 -0.296875 -0.65625 -0.296875q-0.421875 0 -0.6875 0.3125q-0.28125 0.296875 -0.28125 0.828125l1.921875 0zm3.5316162 2.828125l-1.28125 0l0 -4.84375l1.1875 0l0 0.6875q0.3125 -0.484375 0.546875 -0.640625q0.25 -0.15625 0.5625 -0.15625q0.4375 0 0.84375 0.25l-0.390625 1.109375q-0.328125 -0.203125 -0.609375 -0.203125q-0.265625 0 -0.453125 0.15625q-0.1875 0.140625 -0.296875 0.53125q-0.109375 0.375 -0.109375 1.609375l0 1.5zm3.739502 0l-1.953125 -4.84375l1.34375 0l0.921875 2.46875l0.25 0.828125q0.109375 -0.3125 0.140625 -0.40625q0.0625 -0.203125 0.140625 -0.421875l0.90625 -2.46875l1.328125 0l-1.921875 4.84375l-1.15625 0zm3.8597412 -5.5l0 -1.171875l1.28125 0l0 1.171875l-1.28125 0zm0 5.5l0 -4.84375l1.28125 0l0 4.84375l-1.28125 0zm6.810425 -3.40625l-1.265625 0.234375q-0.0625 -0.390625 -0.296875 -0.578125q-0.21875 -0.1875 -0.578125 -0.1875q-0.484375 0 -0.765625 0.328125q-0.28125 0.328125 -0.28125 1.109375q0 0.859375 0.28125 1.21875q0.296875 0.34375 0.78125 0.34375q0.375 0 0.59375 -0.203125q0.234375 -0.203125 0.328125 -0.71875l1.265625 0.21875q-0.203125 0.859375 -0.765625 1.3125q-0.546875 0.4375 -1.484375 0.4375q-1.046875 0 -1.6875 -0.671875q-0.625 -0.671875 -0.625 -1.84375q0 -1.203125 0.625 -1.875q0.640625 -0.671875 1.71875 -0.671875q0.875 0 1.390625 0.390625q0.53125 0.375 0.765625 1.15625zm3.7659912 1.859375l1.28125 0.21875q-0.25 0.703125 -0.78125 1.078125q-0.53125 0.359375 -1.328125 0.359375q-1.265625 0 -1.859375 -0.828125q-0.484375 -0.65625 -0.484375 -1.65625q0 -1.203125 0.625 -1.890625q0.625 -0.6875 1.59375 -0.6875q1.078125 0 1.703125 0.71875q0.625 0.71875 0.59375 2.1875l-3.203125 0q0.015625 0.5625 0.3125 0.890625q0.296875 0.3125 0.734375 0.3125q0.296875 0 0.5 -0.15625q0.203125 -0.171875 0.3125 -0.546875zm0.078125 -1.28125q-0.015625 -0.5625 -0.296875 -0.84375q-0.265625 -0.296875 -0.65625 -0.296875q-0.421875 0 -0.6875 0.3125q-0.28125 0.296875 -0.28125 0.828125l1.921875 0zm2.2972412 2.828125l0 -6.671875l2.015625 0l1.21875 4.546875l1.203125 -4.546875l2.015625 0l0 6.671875l-1.25 0l0 -5.25l-1.328125 5.25l-1.296875 0l-1.328125 -5.25l0 5.25l-1.25 0zm10.582886 -1.546875l1.28125 0.21875q-0.25 0.703125 -0.78125 1.078125q-0.53125 0.359375 -1.328125 0.359375q-1.265625 0 -1.859375 -0.828125q-0.484375 -0.65625 -0.484375 -1.65625q0 -1.203125 0.625 -1.890625q0.625 -0.6875 1.59375 -0.6875q1.078125 0 1.703125 0.71875q0.625 0.71875 0.59375 2.1875l-3.203125 0q0.015625 0.5625 0.3125 0.890625q0.296875 0.3125 0.734375 0.3125q0.296875 0 0.5 -0.15625q0.203125 -0.171875 0.3125 -0.546875zm0.078125 -1.28125q-0.015625 -0.5625 -0.296875 -0.84375q-0.265625 -0.296875 -0.65625 -0.296875q-0.421875 0 -0.6875 0.3125q-0.28125 0.296875 -0.28125 0.828125l1.921875 0zm1.8597412 1.453125l1.28125 -0.203125q0.078125 0.375 0.328125 0.578125q0.265625 0.1875 0.703125 0.1875q0.5 0 0.75 -0.1875q0.171875 -0.125 0.171875 -0.34375q0 -0.140625 -0.09375 -0.234375q-0.09375 -0.09375 -0.421875 -0.171875q-1.546875 -0.34375 -1.96875 -0.625q-0.578125 -0.390625 -0.578125 -1.09375q0 -0.625 0.5 -1.046875q0.5 -0.4375 1.546875 -0.4375q0.984375 0 1.46875 0.328125q0.484375 0.328125 0.671875 0.953125l-1.21875 0.234375q-0.078125 -0.28125 -0.296875 -0.4375q-0.203125 -0.15625 -0.609375 -0.15625q-0.5 0 -0.71875 0.140625q-0.15625 0.109375 -0.15625 0.265625q0 0.140625 0.140625 0.234375q0.171875 0.125 1.1875 0.359375q1.03125 0.234375 1.4375 0.5625q0.390625 0.34375 0.390625 0.953125q0 0.671875 -0.5625 1.15625q-0.546875 0.46875 -1.640625 0.46875q-0.984375 0 -1.5625 -0.390625q-0.578125 -0.40625 -0.75 -1.09375zm5.187866 0l1.28125 -0.203125q0.078125 0.375 0.328125 0.578125q0.265625 0.1875 0.703125 0.1875q0.5 0 0.75 -0.1875q0.171875 -0.125 0.171875 -0.34375q0 -0.140625 -0.09375 -0.234375q-0.09375 -0.09375 -0.421875 -0.171875q-1.546875 -0.34375 -1.96875 -0.625q-0.578125 -0.390625 -0.578125 -1.09375q0 -0.625 0.5 -1.046875q0.5 -0.4375 1.546875 -0.4375q0.984375 0 1.46875 0.328125q0.484375 0.328125 0.671875 0.953125l-1.21875 0.234375q-0.078125 -0.28125 -0.296875 -0.4375q-0.203125 -0.15625 -0.609375 -0.15625q-0.5 0 -0.71875 0.140625q-0.15625 0.109375 -0.15625 0.265625q0 0.140625 0.140625 0.234375q0.171875 0.125 1.1875 0.359375q1.03125 0.234375 1.4375 0.5625q0.390625 0.34375 0.390625 0.953125q0 0.671875 -0.5625 1.15625q-0.546875 0.46875 -1.640625 0.46875q-0.984375 0 -1.5625 -0.390625q-0.578125 -0.40625 -0.75 -1.09375zm6.594116 -1.984375l-1.15625 -0.21875q0.1875 -0.6875 0.65625 -1.03125q0.484375 -0.34375 1.4375 -0.34375q0.859375 0 1.265625 0.203125q0.421875 0.203125 0.59375 0.515625q0.171875 0.3125 0.171875 1.15625l-0.015625 1.484375q0 0.640625 0.0625 0.953125q0.0625 0.296875 0.234375 0.640625l-1.265625 0q-0.046875 -0.125 -0.125 -0.375q-0.03125 -0.109375 -0.046875 -0.15625q-0.328125 0.328125 -0.703125 0.484375q-0.375 0.15625 -0.796875 0.15625q-0.75 0 -1.1875 -0.40625q-0.421875 -0.40625 -0.421875 -1.03125q0 -0.40625 0.1875 -0.71875q0.203125 -0.328125 0.5625 -0.5q0.359375 -0.171875 1.015625 -0.296875q0.90625 -0.171875 1.25 -0.3125l0 -0.125q0 -0.375 -0.1875 -0.53125q-0.1875 -0.15625 -0.6875 -0.15625q-0.34375 0 -0.53125 0.140625q-0.1875 0.125 -0.3125 0.46875zm1.71875 1.03125q-0.25 0.09375 -0.78125 0.203125q-0.53125 0.109375 -0.703125 0.21875q-0.25 0.1875 -0.25 0.453125q0 0.265625 0.203125 0.46875q0.203125 0.1875 0.515625 0.1875q0.34375 0 0.65625 -0.21875q0.234375 -0.171875 0.296875 -0.421875q0.0625 -0.171875 0.0625 -0.625l0 -0.265625zm2.3909912 2.640625l1.46875 0.1875q0.03125 0.25 0.171875 0.34375q0.171875 0.140625 0.5625 0.140625q0.5 0 0.75 -0.15625q0.171875 -0.09375 0.265625 -0.3125q0.0625 -0.171875 0.0625 -0.59375l0 -0.703125q-0.578125 0.78125 -1.453125 0.78125q-0.984375 0 -1.546875 -0.828125q-0.453125 -0.640625 -0.453125 -1.625q0 -1.203125 0.578125 -1.84375q0.59375 -0.65625 1.46875 -0.65625q0.90625 0 1.484375 0.796875l0 -0.6875l1.1875 0l0 4.34375q0 0.859375 -0.140625 1.28125q-0.140625 0.421875 -0.390625 0.65625q-0.25 0.25 -0.6875 0.390625q-0.421875 0.140625 -1.0625 0.140625q-1.234375 0 -1.75 -0.421875q-0.515625 -0.421875 -0.515625 -1.078125q0 -0.0625 0 -0.15625zm1.140625 -2.828125q0 0.765625 0.296875 1.125q0.3125 0.359375 0.75 0.359375q0.46875 0 0.78125 -0.359375q0.328125 -0.375 0.328125 -1.09375q0 -0.75 -0.3125 -1.109375q-0.3125 -0.375 -0.78125 -0.375q-0.453125 0 -0.765625 0.359375q-0.296875 0.359375 -0.296875 1.09375zm7.479248 0.96875l1.28125 0.21875q-0.25 0.703125 -0.78125 1.078125q-0.53125 0.359375 -1.328125 0.359375q-1.265625 0 -1.859375 -0.828125q-0.484375 -0.65625 -0.484375 -1.65625q0 -1.203125 0.625 -1.890625q0.625 -0.6875 1.59375 -0.6875q1.078125 0 1.703125 0.71875q0.625 0.71875 0.59375 2.1875l-3.203125 0q0.015625 0.5625 0.3125 0.890625q0.296875 0.3125 0.734375 0.3125q0.296875 0 0.5 -0.15625q0.203125 -0.171875 0.3125 -0.546875zm0.078125 -1.28125q-0.015625 -0.5625 -0.296875 -0.84375q-0.265625 -0.296875 -0.65625 -0.296875q-0.421875 0 -0.6875 0.3125q-0.28125 0.296875 -0.28125 0.828125l1.921875 0z" fill-rule="nonzero"/><path fill="#ffff00" d="m202.04987 360.97113l91.212616 0l0 30.299225l-91.212616 0z" fill-rule="evenodd"/><path stroke="#595959" stroke-width="1.0" stroke-linejoin="round" stroke-linecap="butt" d="m202.04987 360.97113l91.212616 0l0 30.299225l-91.212616 0z" fill-rule="evenodd"/><path fill="#000000" d="m215.76862 372.89325l0 1.1875l-4.484375 0q0.078125 -0.671875 0.4375 -1.265625q0.359375 -0.609375 1.4375 -1.609375q0.859375 -0.8125 1.0625 -1.09375q0.265625 -0.40625 0.265625 -0.78125q0 -0.4375 -0.234375 -0.65625q-0.234375 -0.234375 -0.640625 -0.234375q-0.390625 0 -0.640625 0.25q-0.234375 0.234375 -0.265625 0.796875l-1.28125 -0.140625q0.125 -1.046875 0.71875 -1.5q0.609375 -0.46875 1.5 -0.46875q1.0 0 1.5625 0.53125q0.5625 0.53125 0.5625 1.328125q0 0.453125 -0.171875 0.859375q-0.15625 0.40625 -0.5 0.84375q-0.234375 0.296875 -0.84375 0.859375q-0.609375 0.5625 -0.765625 0.75q-0.15625 0.171875 -0.265625 0.34375l2.546875 0zm0.7816162 3.15625q0.375 -0.8125 0.53125 -1.25q0.15625 -0.4375 0.28125 -1.0q0.140625 -0.5625 0.203125 -1.0625q0.0625 -0.515625 0.0625 -1.046875q0 -1.078125 -0.234375 -2.046875q-0.234375 -0.96875 -0.84375 -2.359375l0.859375 0q0.6875 0.984375 1.0625 2.09375q0.390625 1.09375 0.390625 2.21875q0 0.953125 -0.296875 2.03125q-0.34375 1.234375 -1.125 2.421875l-0.890625 0zm6.041748 -1.96875l0 -6.671875l2.015625 0l1.21875 4.546875l1.203125 -4.546875l2.015625 0l0 6.671875l-1.25 0l0 -5.25l-1.328125 5.25l-1.296875 0l-1.328125 -5.25l0 5.25l-1.25 0zm7.520401 -3.296875q0 -1.015625 0.296875 -1.71875q0.234375 -0.5 0.625 -0.90625q0.390625 -0.40625 0.875 -0.609375q0.609375 -0.265625 1.4375 -0.265625q1.46875 0 2.34375 0.921875q0.890625 0.921875 0.890625 2.546875q0 1.609375 -0.875 2.53125q-0.875 0.90625 -2.34375 0.90625q-1.5 0 -2.375 -0.90625q-0.875 -0.90625 -0.875 -2.5zm1.390625 -0.046875q0 1.140625 0.515625 1.734375q0.53125 0.578125 1.328125 0.578125q0.8125 0 1.328125 -0.578125q0.515625 -0.59375 0.515625 -1.75q0 -1.15625 -0.5 -1.71875q-0.5 -0.5625 -1.34375 -0.5625q-0.828125 0 -1.34375 0.578125q-0.5 0.5625 -0.5 1.71875zm6.146347 3.34375l0 -6.671875l1.3125 0l2.734375 4.453125l0 -4.453125l1.25 0l0 6.671875l-1.34375 0l-2.703125 -4.359375l0 4.359375l-1.25 0zm6.6896057 0l0 -6.671875l1.34375 0l0 6.671875l-1.34375 0zm4.1385345 0l0 -5.546875l-1.984375 0l0 -1.125l5.296875 0l0 1.125l-1.96875 0l0 5.546875l-1.34375 0zm3.7481232 -3.296875q0 -1.015625 0.296875 -1.71875q0.234375 -0.5 0.625 -0.90625q0.390625 -0.40625 0.875 -0.609375q0.609375 -0.265625 1.4375 -0.265625q1.46875 0 2.34375 0.921875q0.890625 0.921875 0.890625 2.546875q0 1.609375 -0.875 2.53125q-0.875 0.90625 -2.34375 0.90625q-1.5 0 -2.375 -0.90625q-0.875 -0.90625 -0.875 -2.5zm1.390625 -0.046875q0 1.140625 0.515625 1.734375q0.53125 0.578125 1.328125 0.578125q0.8125 0 1.328125 -0.578125q0.515625 -0.59375 0.515625 -1.75q0 -1.15625 -0.5 -1.71875q-0.5 -0.5625 -1.34375 -0.5625q-0.828125 0 -1.34375 0.578125q-0.5 0.5625 -0.5 1.71875zm6.1463623 3.34375l0 -6.671875l2.828125 0q1.078125 0 1.5625 0.1875q0.484375 0.171875 0.765625 0.640625q0.296875 0.453125 0.296875 1.03125q0 0.765625 -0.4375 1.25q-0.4375 0.484375 -1.328125 0.609375q0.4375 0.265625 0.71875 0.578125q0.296875 0.296875 0.78125 1.078125l0.8125 1.296875l-1.609375 0l-0.984375 -1.453125q-0.515625 -0.78125 -0.703125 -0.984375q-0.1875 -0.203125 -0.40625 -0.265625q-0.21875 -0.078125 -0.671875 -0.078125l-0.28125 0l0 2.78125l-1.34375 0zm1.34375 -3.859375l1.0 0q0.96875 0 1.203125 -0.078125q0.25 -0.078125 0.375 -0.28125q0.140625 -0.203125 0.140625 -0.5q0 -0.34375 -0.1875 -0.546875q-0.171875 -0.203125 -0.5 -0.265625q-0.15625 -0.015625 -0.984375 -0.015625l-1.046875 0l0 1.6875z" fill-rule="nonzero"/><path fill="#000000" d="m211.73737 378.40887l2.671875 0q0.78125 0 1.171875 0.0625q0.390625 0.0625 0.6875 0.28125q0.3125 0.203125 0.515625 0.5625q0.21875 0.34375 0.21875 0.765625q0 0.46875 -0.265625 0.859375q-0.25 0.390625 -0.671875 0.59375q0.609375 0.171875 0.9375 0.609375q0.328125 0.421875 0.328125 1.0q0 0.453125 -0.21875 0.890625q-0.203125 0.421875 -0.578125 0.6875q-0.359375 0.25 -0.90625 0.3125q-0.328125 0.03125 -1.625 0.046875l-2.265625 0l0 -6.671875zm1.34375 1.109375l0 1.546875l0.890625 0q0.78125 0 0.96875 -0.03125q0.34375 -0.03125 0.546875 -0.234375q0.203125 -0.203125 0.203125 -0.53125q0 -0.296875 -0.171875 -0.484375q-0.171875 -0.203125 -0.515625 -0.25q-0.203125 -0.015625 -1.140625 -0.015625l-0.78125 0zm0 2.65625l0 1.78125l1.25 0q0.734375 0 0.921875 -0.046875q0.296875 -0.046875 0.484375 -0.25q0.1875 -0.21875 0.1875 -0.578125q0 -0.296875 -0.140625 -0.5q-0.140625 -0.21875 -0.421875 -0.3125q-0.265625 -0.09375 -1.1875 -0.09375l-1.09375 0zm6.8927307 2.90625l0 -5.546875l-1.984375 0l0 -1.125l5.296875 0l0 1.125l-1.96875 0l0 5.546875l-1.34375 0zm4.182373 0l0 -6.671875l2.171875 0q1.234375 0 1.609375 0.09375q0.5625 0.15625 0.953125 0.65625q0.390625 0.5 0.390625 1.296875q0 0.609375 -0.234375 1.03125q-0.21875 0.421875 -0.5625 0.671875q-0.34375 0.234375 -0.703125 0.3125q-0.46875 0.09375 -1.390625 0.09375l-0.875 0l0 2.515625l-1.359375 0zm1.359375 -5.546875l0 1.890625l0.734375 0q0.796875 0 1.0625 -0.09375q0.265625 -0.109375 0.421875 -0.328125q0.15625 -0.234375 0.15625 -0.53125q0 -0.359375 -0.21875 -0.59375q-0.21875 -0.234375 -0.546875 -0.296875q-0.234375 -0.046875 -0.96875 -0.046875l-0.640625 0zm4.8467865 5.546875l0 -6.671875l2.015625 0l1.21875 4.546875l1.203125 -4.546875l2.015625 0l0 6.671875l-1.25 0l0 -5.25l-1.328125 5.25l-1.296875 0l-1.328125 -5.25l0 5.25l-1.25 0zm10.582901 -1.546875l1.28125 0.21875q-0.25 0.703125 -0.78125 1.078125q-0.53125 0.359375 -1.328125 0.359375q-1.265625 0 -1.859375 -0.828125q-0.484375 -0.65625 -0.484375 -1.65625q0 -1.203125 0.625 -1.890625q0.625 -0.6875 1.59375 -0.6875q1.078125 0 1.703125 0.71875q0.625 0.71875 0.59375 2.1875l-3.203125 0q0.015625 0.5625 0.3125 0.890625q0.296875 0.3125 0.734375 0.3125q0.296875 0 0.5 -0.15625q0.203125 -0.171875 0.3125 -0.546875zm0.078125 -1.28125q-0.015625 -0.5625 -0.296875 -0.84375q-0.265625 -0.296875 -0.65625 -0.296875q-0.421875 0 -0.6875 0.3125q-0.28125 0.296875 -0.28125 0.828125l1.921875 0zm1.8597412 1.453125l1.28125 -0.203125q0.078125 0.375 0.328125 0.578125q0.265625 0.1875 0.703125 0.1875q0.5 0 0.75 -0.1875q0.171875 -0.125 0.171875 -0.34375q0 -0.140625 -0.09375 -0.234375q-0.09375 -0.09375 -0.421875 -0.171875q-1.546875 -0.34375 -1.96875 -0.625q-0.578125 -0.390625 -0.578125 -1.09375q0 -0.625 0.5 -1.046875q0.5 -0.4375 1.546875 -0.4375q0.984375 0 1.46875 0.328125q0.484375 0.328125 0.671875 0.953125l-1.21875 0.234375q-0.078125 -0.28125 -0.296875 -0.4375q-0.203125 -0.15625 -0.609375 -0.15625q-0.5 0 -0.71875 0.140625q-0.15625 0.109375 -0.15625 0.265625q0 0.140625 0.140625 0.234375q0.171875 0.125 1.1875 0.359375q1.03125 0.234375 1.4375 0.5625q0.390625 0.34375 0.390625 0.953125q0 0.671875 -0.5625 1.15625q-0.546875 0.46875 -1.640625 0.46875q-0.984375 0 -1.5625 -0.390625q-0.578125 -0.40625 -0.75 -1.09375zm5.187866 0l1.28125 -0.203125q0.078125 0.375 0.328125 0.578125q0.265625 0.1875 0.703125 0.1875q0.5 0 0.75 -0.1875q0.171875 -0.125 0.171875 -0.34375q0 -0.140625 -0.09375 -0.234375q-0.09375 -0.09375 -0.421875 -0.171875q-1.546875 -0.34375 -1.96875 -0.625q-0.578125 -0.390625 -0.578125 -1.09375q0 -0.625 0.5 -1.046875q0.5 -0.4375 1.546875 -0.4375q0.984375 0 1.46875 0.328125q0.484375 0.328125 0.671875 0.953125l-1.21875 0.234375q-0.078125 -0.28125 -0.296875 -0.4375q-0.203125 -0.15625 -0.609375 -0.15625q-0.5 0 -0.71875 0.140625q-0.15625 0.109375 -0.15625 0.265625q0 0.140625 0.140625 0.234375q0.171875 0.125 1.1875 0.359375q1.03125 0.234375 1.4375 0.5625q0.390625 0.34375 0.390625 0.953125q0 0.671875 -0.5625 1.15625q-0.546875 0.46875 -1.640625 0.46875q-0.984375 0 -1.5625 -0.390625q-0.578125 -0.40625 -0.75 -1.09375zm6.594116 -1.984375l-1.15625 -0.21875q0.1875 -0.6875 0.65625 -1.03125q0.484375 -0.34375 1.4375 -0.34375q0.859375 0 1.265625 0.203125q0.421875 0.203125 0.59375 0.515625q0.171875 0.3125 0.171875 1.15625l-0.015625 1.484375q0 0.640625 0.0625 0.953125q0.0625 0.296875 0.234375 0.640625l-1.265625 0q-0.046875 -0.125 -0.125 -0.375q-0.03125 -0.109375 -0.046875 -0.15625q-0.328125 0.328125 -0.703125 0.484375q-0.375 0.15625 -0.796875 0.15625q-0.75 0 -1.1875 -0.40625q-0.421875 -0.40625 -0.421875 -1.03125q0 -0.40625 0.1875 -0.71875q0.203125 -0.328125 0.5625 -0.5q0.359375 -0.171875 1.015625 -0.296875q0.90625 -0.171875 1.25 -0.3125l0 -0.125q0 -0.375 -0.1875 -0.53125q-0.1875 -0.15625 -0.6875 -0.15625q-0.34375 0 -0.53125 0.140625q-0.1875 0.125 -0.3125 0.46875zm1.71875 1.03125q-0.25 0.09375 -0.78125 0.203125q-0.53125 0.109375 -0.703125 0.21875q-0.25 0.1875 -0.25 0.453125q0 0.265625 0.203125 0.46875q0.203125 0.1875 0.515625 0.1875q0.34375 0 0.65625 -0.21875q0.234375 -0.171875 0.296875 -0.421875q0.0625 -0.171875 0.0625 -0.625l0 -0.265625zm2.3909912 2.640625l1.46875 0.1875q0.03125 0.25 0.171875 0.34375q0.171875 0.140625 0.5625 0.140625q0.5 0 0.75 -0.15625q0.171875 -0.09375 0.265625 -0.3125q0.0625 -0.171875 0.0625 -0.59375l0 -0.703125q-0.578125 0.78125 -1.453125 0.78125q-0.984375 0 -1.546875 -0.828125q-0.453125 -0.640625 -0.453125 -1.625q0 -1.203125 0.578125 -1.84375q0.59375 -0.65625 1.46875 -0.65625q0.90625 0 1.484375 0.796875l0 -0.6875l1.1875 0l0 4.34375q0 0.859375 -0.140625 1.28125q-0.140625 0.421875 -0.390625 0.65625q-0.25 0.25 -0.6875 0.390625q-0.421875 0.140625 -1.0625 0.140625q-1.234375 0 -1.75 -0.421875q-0.515625 -0.421875 -0.515625 -1.078125q0 -0.0625 0 -0.15625zm1.140625 -2.828125q0 0.765625 0.296875 1.125q0.3125 0.359375 0.75 0.359375q0.46875 0 0.78125 -0.359375q0.328125 -0.375 0.328125 -1.09375q0 -0.75 -0.3125 -1.109375q-0.3125 -0.375 -0.78125 -0.375q-0.453125 0 -0.765625 0.359375q-0.296875 0.359375 -0.296875 1.09375zm7.479248 0.96875l1.28125 0.21875q-0.25 0.703125 -0.78125 1.078125q-0.53125 0.359375 -1.328125 0.359375q-1.265625 0 -1.859375 -0.828125q-0.484375 -0.65625 -0.484375 -1.65625q0 -1.203125 0.625 -1.890625q0.625 -0.6875 1.59375 -0.6875q1.078125 0 1.703125 0.71875q0.625 0.71875 0.59375 2.1875l-3.203125 0q0.015625 0.5625 0.3125 0.890625q0.296875 0.3125 0.734375 0.3125q0.296875 0 0.5 -0.15625q0.203125 -0.171875 0.3125 -0.546875zm0.078125 -1.28125q-0.015625 -0.5625 -0.296875 -0.84375q-0.265625 -0.296875 -0.65625 -0.296875q-0.421875 0 -0.6875 0.3125q-0.28125 0.296875 -0.28125 0.828125l1.921875 0zm1.8597412 1.453125l1.28125 -0.203125q0.078125 0.375 0.328125 0.578125q0.265625 0.1875 0.703125 0.1875q0.5 0 0.75 -0.1875q0.171875 -0.125 0.171875 -0.34375q0 -0.140625 -0.09375 -0.234375q-0.09375 -0.09375 -0.421875 -0.171875q-1.546875 -0.34375 -1.96875 -0.625q-0.578125 -0.390625 -0.578125 -1.09375q0 -0.625 0.5 -1.046875q0.5 -0.4375 1.546875 -0.4375q0.984375 0 1.46875 0.328125q0.484375 0.328125 0.671875 0.953125l-1.21875 0.234375q-0.078125 -0.28125 -0.296875 -0.4375q-0.203125 -0.15625 -0.609375 -0.15625q-0.5 0 -0.71875 0.140625q-0.15625 0.109375 -0.15625 0.265625q0 0.140625 0.140625 0.234375q0.171875 0.125 1.1875 0.359375q1.03125 0.234375 1.4375 0.5625q0.390625 0.34375 0.390625 0.953125q0 0.671875 -0.5625 1.15625q-0.546875 0.46875 -1.640625 0.46875q-0.984375 0 -1.5625 -0.390625q-0.578125 -0.40625 -0.75 -1.09375z" fill-rule="nonzero"/><path fill="#ffff00" d="m496.1916 360.97113l99.4646 0l0 30.299225l-99.4646 0z" fill-rule="evenodd"/><path stroke="#595959" stroke-width="1.0" stroke-linejoin="round" stroke-linecap="butt" d="m496.1916 360.97113l99.4646 0l0 30.299225l-99.4646 0z" fill-rule="evenodd"/><path fill="#000000" d="m508.09784 374.08075l0 -1.34375l-2.734375 0l0 -1.125l2.890625 -4.234375l1.078125 0l0 4.234375l0.828125 0l0 1.125l-0.828125 0l0 1.34375l-1.234375 0zm0 -2.46875l0 -2.28125l-1.53125 2.28125l1.53125 0zm2.5941162 4.4375q0.375 -0.8125 0.53125 -1.25q0.15625 -0.4375 0.28125 -1.0q0.140625 -0.5625 0.203125 -1.0625q0.0625 -0.515625 0.0625 -1.046875q0 -1.078125 -0.234375 -2.046875q-0.234375 -0.96875 -0.84375 -2.359375l0.859375 0q0.6875 0.984375 1.0625 2.09375q0.390625 1.09375 0.390625 2.21875q0 0.953125 -0.296875 2.03125q-0.34375 1.234375 -1.125 2.421875l-0.890625 0zm6.072998 -1.96875l0 -6.671875l1.34375 0l0 2.625l2.640625 0l0 -2.625l1.34375 0l0 6.671875l-1.34375 0l0 -2.921875l-2.640625 0l0 2.921875l-1.34375 0zm12.752136 0l-1.46875 0l-0.578125 -1.515625l-2.671875 0l-0.546875 1.515625l-1.4375 0l2.59375 -6.671875l1.4375 0l2.671875 6.671875zm-2.484375 -2.640625l-0.921875 -2.484375l-0.90625 2.484375l1.828125 0zm3.2052002 2.640625l0 -6.671875l1.3125 0l2.734375 4.453125l0 -4.453125l1.25 0l0 6.671875l-1.34375 0l-2.703125 -4.359375l0 4.359375l-1.25 0zm6.720886 -6.671875l2.46875 0q0.828125 0 1.265625 0.125q0.59375 0.171875 1.0 0.609375q0.421875 0.4375 0.640625 1.078125q0.21875 0.640625 0.21875 1.578125q0 0.828125 -0.203125 1.421875q-0.25 0.734375 -0.703125 1.1875q-0.359375 0.34375 -0.953125 0.53125q-0.453125 0.140625 -1.1875 0.140625l-2.546875 0l0 -6.671875zm1.34375 1.125l0 4.421875l1.015625 0q0.5625 0 0.8125 -0.0625q0.328125 -0.078125 0.546875 -0.265625q0.21875 -0.203125 0.34375 -0.65625q0.140625 -0.453125 0.140625 -1.21875q0 -0.78125 -0.140625 -1.1875q-0.125 -0.421875 -0.375 -0.65625q-0.25 -0.234375 -0.625 -0.3125q-0.28125 -0.0625 -1.109375 -0.0625l-0.609375 0zm5.439575 5.546875l0 -6.625l1.34375 0l0 5.5l3.359375 0l0 1.125l-4.703125 0zm5.651123 0l0 -6.671875l4.953125 0l0 1.125l-3.59375 0l0 1.484375l3.34375 0l0 1.125l-3.34375 0l0 1.8125l3.71875 0l0 1.125l-5.078125 0z" fill-rule="nonzero"/><path fill="#000000" d="m505.8791 385.08075l0 -6.671875l2.828125 0q1.078125 0 1.5625 0.1875q0.484375 0.171875 0.765625 0.640625q0.296875 0.453125 0.296875 1.03125q0 0.765625 -0.4375 1.25q-0.4375 0.484375 -1.328125 0.609375q0.4375 0.265625 0.71875 0.578125q0.296875 0.296875 0.78125 1.078125l0.8125 1.296875l-1.609375 0l-0.984375 -1.453125q-0.515625 -0.78125 -0.703125 -0.984375q-0.1875 -0.203125 -0.40625 -0.265625q-0.21875 -0.078125 -0.671875 -0.078125l-0.28125 0l0 2.78125l-1.34375 0zm1.34375 -3.859375l1.0 0q0.96875 0 1.203125 -0.078125q0.25 -0.078125 0.375 -0.28125q0.140625 -0.203125 0.140625 -0.5q0 -0.34375 -0.1875 -0.546875q-0.171875 -0.203125 -0.5 -0.265625q-0.15625 -0.015625 -0.984375 -0.015625l-1.046875 0l0 1.6875zm8.174011 2.3125l1.28125 0.21875q-0.25 0.703125 -0.78125 1.078125q-0.53125 0.359375 -1.328125 0.359375q-1.265625 0 -1.859375 -0.828125q-0.484375 -0.65625 -0.484375 -1.65625q0 -1.203125 0.625 -1.890625q0.625 -0.6875 1.59375 -0.6875q1.078125 0 1.703125 0.71875q0.625 0.71875 0.59375 2.1875l-3.203125 0q0.015625 0.5625 0.3125 0.890625q0.296875 0.3125 0.734375 0.3125q0.296875 0 0.5 -0.15625q0.203125 -0.171875 0.3125 -0.546875zm0.078125 -1.28125q-0.015625 -0.5625 -0.296875 -0.84375q-0.265625 -0.296875 -0.65625 -0.296875q-0.421875 0 -0.6875 0.3125q-0.28125 0.296875 -0.28125 0.828125l1.921875 0zm2.3128662 2.828125l0 -6.671875l1.28125 0l0 6.671875l-1.28125 0zm3.5447388 -3.359375l-1.15625 -0.21875q0.1875 -0.6875 0.65625 -1.03125q0.484375 -0.34375 1.4375 -0.34375q0.859375 0 1.265625 0.203125q0.421875 0.203125 0.59375 0.515625q0.171875 0.3125 0.171875 1.15625l-0.015625 1.484375q0 0.640625 0.0625 0.953125q0.0625 0.296875 0.234375 0.640625l-1.265625 0q-0.046875 -0.125 -0.125 -0.375q-0.03125 -0.109375 -0.046875 -0.15625q-0.328125 0.328125 -0.703125 0.484375q-0.375 0.15625 -0.796875 0.15625q-0.75 0 -1.1875 -0.40625q-0.421875 -0.40625 -0.421875 -1.03125q0 -0.40625 0.1875 -0.71875q0.203125 -0.328125 0.5625 -0.5q0.359375 -0.171875 1.015625 -0.296875q0.90625 -0.171875 1.25 -0.3125l0 -0.125q0 -0.375 -0.1875 -0.53125q-0.1875 -0.15625 -0.6875 -0.15625q-0.34375 0 -0.53125 0.140625q-0.1875 0.125 -0.3125 0.46875zm1.71875 1.03125q-0.25 0.09375 -0.78125 0.203125q-0.53125 0.109375 -0.703125 0.21875q-0.25 0.1875 -0.25 0.453125q0 0.265625 0.203125 0.46875q0.203125 0.1875 0.515625 0.1875q0.34375 0 0.65625 -0.21875q0.234375 -0.171875 0.296875 -0.421875q0.0625 -0.171875 0.0625 -0.625l0 -0.265625zm1.9066162 -2.515625l1.359375 0l1.15625 3.4375l1.140625 -3.4375l1.3125 0l-1.703125 4.65625l-0.296875 0.84375q-0.171875 0.421875 -0.328125 0.640625q-0.15625 0.234375 -0.359375 0.375q-0.1875 0.140625 -0.484375 0.21875q-0.28125 0.078125 -0.640625 0.078125q-0.375 0 -0.734375 -0.078125l-0.109375 -1.0q0.296875 0.046875 0.546875 0.046875q0.4375 0 0.65625 -0.265625q0.21875 -0.25 0.328125 -0.65625l-1.84375 -4.859375zm5.781616 4.84375l0 -6.671875l2.015625 0l1.21875 4.546875l1.203125 -4.546875l2.015625 0l0 6.671875l-1.25 0l0 -5.25l-1.328125 5.25l-1.296875 0l-1.328125 -5.25l0 5.25l-1.25 0zm10.582947 -1.546875l1.28125 0.21875q-0.25 0.703125 -0.78125 1.078125q-0.53125 0.359375 -1.328125 0.359375q-1.265625 0 -1.859375 -0.828125q-0.484375 -0.65625 -0.484375 -1.65625q0 -1.203125 0.625 -1.890625q0.625 -0.6875 1.59375 -0.6875q1.078125 0 1.703125 0.71875q0.625 0.71875 0.59375 2.1875l-3.203125 0q0.015625 0.5625 0.3125 0.890625q0.296875 0.3125 0.734375 0.3125q0.296875 0 0.5 -0.15625q0.203125 -0.171875 0.3125 -0.546875zm0.078125 -1.28125q-0.015625 -0.5625 -0.296875 -0.84375q-0.265625 -0.296875 -0.65625 -0.296875q-0.421875 0 -0.6875 0.3125q-0.28125 0.296875 -0.28125 0.828125l1.921875 0zm1.8597412 1.453125l1.28125 -0.203125q0.078125 0.375 0.328125 0.578125q0.265625 0.1875 0.703125 0.1875q0.5 0 0.75 -0.1875q0.171875 -0.125 0.171875 -0.34375q0 -0.140625 -0.09375 -0.234375q-0.09375 -0.09375 -0.421875 -0.171875q-1.546875 -0.34375 -1.96875 -0.625q-0.578125 -0.390625 -0.578125 -1.09375q0 -0.625 0.5 -1.046875q0.5 -0.4375 1.546875 -0.4375q0.984375 0 1.46875 0.328125q0.484375 0.328125 0.671875 0.953125l-1.21875 0.234375q-0.078125 -0.28125 -0.296875 -0.4375q-0.203125 -0.15625 -0.609375 -0.15625q-0.5 0 -0.71875 0.140625q-0.15625 0.109375 -0.15625 0.265625q0 0.140625 0.140625 0.234375q0.171875 0.125 1.1875 0.359375q1.03125 0.234375 1.4375 0.5625q0.390625 0.34375 0.390625 0.953125q0 0.671875 -0.5625 1.15625q-0.546875 0.46875 -1.640625 0.46875q-0.984375 0 -1.5625 -0.390625q-0.578125 -0.40625 -0.75 -1.09375zm5.187866 0l1.28125 -0.203125q0.078125 0.375 0.328125 0.578125q0.265625 0.1875 0.703125 0.1875q0.5 0 0.75 -0.1875q0.171875 -0.125 0.171875 -0.34375q0 -0.140625 -0.09375 -0.234375q-0.09375 -0.09375 -0.421875 -0.171875q-1.546875 -0.34375 -1.96875 -0.625q-0.578125 -0.390625 -0.578125 -1.09375q0 -0.625 0.5 -1.046875q0.5 -0.4375 1.546875 -0.4375q0.984375 0 1.46875 0.328125q0.484375 0.328125 0.671875 0.953125l-1.21875 0.234375q-0.078125 -0.28125 -0.296875 -0.4375q-0.203125 -0.15625 -0.609375 -0.15625q-0.5 0 -0.71875 0.140625q-0.15625 0.109375 -0.15625 0.265625q0 0.140625 0.140625 0.234375q0.171875 0.125 1.1875 0.359375q1.03125 0.234375 1.4375 0.5625q0.390625 0.34375 0.390625 0.953125q0 0.671875 -0.5625 1.15625q-0.546875 0.46875 -1.640625 0.46875q-0.984375 0 -1.5625 -0.390625q-0.578125 -0.40625 -0.75 -1.09375zm6.594116 -1.984375l-1.15625 -0.21875q0.1875 -0.6875 0.65625 -1.03125q0.484375 -0.34375 1.4375 -0.34375q0.859375 0 1.265625 0.203125q0.421875 0.203125 0.59375 0.515625q0.171875 0.3125 0.171875 1.15625l-0.015625 1.484375q0 0.640625 0.0625 0.953125q0.0625 0.296875 0.234375 0.640625l-1.265625 0q-0.046875 -0.125 -0.125 -0.375q-0.03125 -0.109375 -0.046875 -0.15625q-0.328125 0.328125 -0.703125 0.484375q-0.375 0.15625 -0.796875 0.15625q-0.75 0 -1.1875 -0.40625q-0.421875 -0.40625 -0.421875 -1.03125q0 -0.40625 0.1875 -0.71875q0.203125 -0.328125 0.5625 -0.5q0.359375 -0.171875 1.015625 -0.296875q0.90625 -0.171875 1.25 -0.3125l0 -0.125q0 -0.375 -0.1875 -0.53125q-0.1875 -0.15625 -0.6875 -0.15625q-0.34375 0 -0.53125 0.140625q-0.1875 0.125 -0.3125 0.46875zm1.71875 1.03125q-0.25 0.09375 -0.78125 0.203125q-0.53125 0.109375 -0.703125 0.21875q-0.25 0.1875 -0.25 0.453125q0 0.265625 0.203125 0.46875q0.203125 0.1875 0.515625 0.1875q0.34375 0 0.65625 -0.21875q0.234375 -0.171875 0.296875 -0.421875q0.0625 -0.171875 0.0625 -0.625l0 -0.265625zm2.3909912 2.640625l1.46875 0.1875q0.03125 0.25 0.171875 0.34375q0.171875 0.140625 0.5625 0.140625q0.5 0 0.75 -0.15625q0.171875 -0.09375 0.265625 -0.3125q0.0625 -0.171875 0.0625 -0.59375l0 -0.703125q-0.578125 0.78125 -1.453125 0.78125q-0.984375 0 -1.546875 -0.828125q-0.453125 -0.640625 -0.453125 -1.625q0 -1.203125 0.578125 -1.84375q0.59375 -0.65625 1.46875 -0.65625q0.90625 0 1.484375 0.796875l0 -0.6875l1.1875 0l0 4.34375q0 0.859375 -0.140625 1.28125q-0.140625 0.421875 -0.390625 0.65625q-0.25 0.25 -0.6875 0.390625q-0.421875 0.140625 -1.0625 0.140625q-1.234375 0 -1.75 -0.421875q-0.515625 -0.421875 -0.515625 -1.078125q0 -0.0625 0 -0.15625zm1.140625 -2.828125q0 0.765625 0.296875 1.125q0.3125 0.359375 0.75 0.359375q0.46875 0 0.78125 -0.359375q0.328125 -0.375 0.328125 -1.09375q0 -0.75 -0.3125 -1.109375q-0.3125 -0.375 -0.78125 -0.375q-0.453125 0 -0.765625 0.359375q-0.296875 0.359375 -0.296875 1.09375zm7.479248 0.96875l1.28125 0.21875q-0.25 0.703125 -0.78125 1.078125q-0.53125 0.359375 -1.328125 0.359375q-1.265625 0 -1.859375 -0.828125q-0.484375 -0.65625 -0.484375 -1.65625q0 -1.203125 0.625 -1.890625q0.625 -0.6875 1.59375 -0.6875q1.078125 0 1.703125 0.71875q0.625 0.71875 0.59375 2.1875l-3.203125 0q0.015625 0.5625 0.3125 0.890625q0.296875 0.3125 0.734375 0.3125q0.296875 0 0.5 -0.15625q0.203125 -0.171875 0.3125 -0.546875zm0.078125 -1.28125q-0.015625 -0.5625 -0.296875 -0.84375q-0.265625 -0.296875 -0.65625 -0.296875q-0.421875 0 -0.6875 0.3125q-0.28125 0.296875 -0.28125 0.828125l1.921875 0z" fill-rule="nonzero"/><path fill="#000000" fill-opacity="0.0" d="m336.69553 395.95013c-23.88974 0 -47.77951 -61.921265 -47.77951 -123.84253" fill-rule="evenodd"/><path stroke="#595959" stroke-width="1.0" stroke-linejoin="round" stroke-linecap="butt" stroke-dasharray="4.0,3.0" d="m336.69553 395.95013c-11.944855 0 -23.88974 -15.480316 -32.84842 -38.700806c-4.4793396 -11.6102295 -8.212097 -25.155487 -10.825043 -39.668304c-1.3064575 -7.256378 -2.3329773 -14.754669 -3.032898 -22.37387c-0.34994507 -3.8096313 -0.6182251 -7.6494446 -0.79901123 -11.504425c-0.04522705 -0.9637451 -0.08496094 -1.9284363 -0.11911011 -2.8938293c-0.017089844 -0.48266602 -0.032806396 -0.96554565 -0.047088623 -1.4485779l-0.033447266 -1.2531738" fill-rule="evenodd"/><path fill="#595959" stroke="#595959" stroke-width="1.0" stroke-linecap="butt" d="m290.64212 278.08664l-1.7079468 -4.5172424l-1.5952759 4.558258z" fill-rule="evenodd"/><path fill="#ffff00" d="m282.09448 308.68503l99.46457 0l0 30.299225l-99.46457 0z" fill-rule="evenodd"/><path stroke="#595959" stroke-width="1.0" stroke-linejoin="round" stroke-linecap="butt" d="m282.09448 308.68503l99.46457 0l0 30.299225l-99.46457 0z" fill-rule="evenodd"/><path fill="#000000" d="m291.43823 325.52902l1.25 -0.15625q0.0625 0.46875 0.3125 0.71875q0.265625 0.25 0.625 0.25q0.40625 0 0.671875 -0.296875q0.265625 -0.296875 0.265625 -0.8125q0 -0.484375 -0.265625 -0.765625q-0.25 -0.28125 -0.625 -0.28125q-0.234375 0 -0.578125 0.09375l0.140625 -1.03125q0.515625 0 0.78125 -0.234375q0.28125 -0.234375 0.28125 -0.640625q0 -0.328125 -0.203125 -0.53125q-0.203125 -0.203125 -0.53125 -0.203125q-0.328125 0 -0.5625 0.234375q-0.234375 0.21875 -0.28125 0.65625l-1.171875 -0.1875q0.109375 -0.609375 0.359375 -0.96875q0.25 -0.375 0.6875 -0.578125q0.453125 -0.203125 1.0 -0.203125q0.953125 0 1.515625 0.59375q0.46875 0.5 0.46875 1.125q0 0.875 -0.953125 1.390625q0.5625 0.125 0.90625 0.5625q0.34375 0.421875 0.34375 1.03125q0 0.875 -0.640625 1.5q-0.640625 0.609375 -1.59375 0.609375q-0.90625 0 -1.5 -0.515625q-0.59375 -0.515625 -0.703125 -1.359375zm5.156616 3.734375q0.375 -0.8125 0.53125 -1.25q0.15625 -0.4375 0.28125 -1.0q0.140625 -0.5625 0.203125 -1.0625q0.0625 -0.515625 0.0625 -1.046875q0 -1.078125 -0.234375 -2.046875q-0.234375 -0.96875 -0.84375 -2.359375l0.859375 0q0.6875 0.984375 1.0625 2.09375q0.390625 1.09375 0.390625 2.21875q0 0.953125 -0.296875 2.03125q-0.34375 1.234375 -1.125 2.421875l-0.890625 0zm9.166748 -4.421875l0 -1.125l2.90625 0l0 2.65625q-0.421875 0.40625 -1.234375 0.71875q-0.796875 0.3125 -1.625 0.3125q-1.046875 0 -1.828125 -0.4375q-0.765625 -0.4375 -1.15625 -1.25q-0.390625 -0.828125 -0.390625 -1.78125q0 -1.046875 0.4375 -1.859375q0.4375 -0.8125 1.265625 -1.234375q0.65625 -0.34375 1.609375 -0.34375q1.234375 0 1.9375 0.53125q0.703125 0.515625 0.90625 1.4375l-1.34375 0.25q-0.140625 -0.484375 -0.53125 -0.765625q-0.390625 -0.296875 -0.96875 -0.296875q-0.890625 0 -1.421875 0.5625q-0.515625 0.5625 -0.515625 1.65625q0 1.1875 0.53125 1.796875q0.53125 0.59375 1.390625 0.59375q0.421875 0 0.84375 -0.171875q0.4375 -0.171875 0.734375 -0.40625l0 -0.84375l-1.546875 0zm4.1463623 2.453125l0 -6.671875l4.953125 0l0 1.125l-3.59375 0l0 1.484375l3.34375 0l0 1.125l-3.34375 0l0 1.8125l3.71875 0l0 1.125l-5.078125 0zm7.7373962 0l0 -5.546875l-1.984375 0l0 -1.125l5.296875 0l0 1.125l-1.96875 0l0 5.546875l-1.34375 0zm6.774048 0l0 -6.671875l2.171875 0q1.234375 0 1.609375 0.09375q0.5625 0.15625 0.953125 0.65625q0.390625 0.5 0.390625 1.296875q0 0.609375 -0.234375 1.03125q-0.21875 0.421875 -0.5625 0.671875q-0.34375 0.234375 -0.703125 0.3125q-0.46875 0.09375 -1.390625 0.09375l-0.875 0l0 2.515625l-1.359375 0zm1.359375 -5.546875l0 1.890625l0.734375 0q0.796875 0 1.0625 -0.09375q0.265625 -0.109375 0.421875 -0.328125q0.15625 -0.234375 0.15625 -0.53125q0 -0.359375 -0.21875 -0.59375q-0.21875 -0.234375 -0.546875 -0.296875q-0.234375 -0.046875 -0.96875 -0.046875l-0.640625 0zm6.0811462 5.546875l-1.28125 0l0 -4.84375l1.1875 0l0 0.6875q0.3125 -0.484375 0.546875 -0.640625q0.25 -0.15625 0.5625 -0.15625q0.4375 0 0.84375 0.25l-0.390625 1.109375q-0.328125 -0.203125 -0.609375 -0.203125q-0.265625 0 -0.453125 0.15625q-0.1875 0.140625 -0.296875 0.53125q-0.109375 0.375 -0.109375 1.609375l0 1.5zm2.1145325 -2.484375q0 -0.640625 0.3125 -1.234375q0.3125 -0.59375 0.890625 -0.90625q0.578125 -0.328125 1.28125 -0.328125q1.109375 0 1.796875 0.71875q0.703125 0.71875 0.703125 1.796875q0 1.109375 -0.703125 1.828125q-0.703125 0.71875 -1.78125 0.71875q-0.671875 0 -1.28125 -0.296875q-0.59375 -0.296875 -0.90625 -0.875q-0.3125 -0.59375 -0.3125 -1.421875zm1.3125 0.0625q0 0.71875 0.34375 1.109375q0.34375 0.375 0.84375 0.375q0.5 0 0.828125 -0.375q0.34375 -0.390625 0.34375 -1.109375q0 -0.71875 -0.34375 -1.09375q-0.328125 -0.390625 -0.828125 -0.390625q-0.5 0 -0.84375 0.390625q-0.34375 0.375 -0.34375 1.09375zm4.385498 -0.0625q0 -0.640625 0.3125 -1.234375q0.3125 -0.59375 0.890625 -0.90625q0.578125 -0.328125 1.28125 -0.328125q1.109375 0 1.796875 0.71875q0.703125 0.71875 0.703125 1.796875q0 1.109375 -0.703125 1.828125q-0.703125 0.71875 -1.78125 0.71875q-0.671875 0 -1.28125 -0.296875q-0.59375 -0.296875 -0.90625 -0.875q-0.3125 -0.59375 -0.3125 -1.421875zm1.3125 0.0625q0 0.71875 0.34375 1.109375q0.34375 0.375 0.84375 0.375q0.5 0 0.828125 -0.375q0.34375 -0.390625 0.34375 -1.109375q0 -0.71875 -0.34375 -1.09375q-0.328125 -0.390625 -0.828125 -0.390625q-0.5 0 -0.84375 0.390625q-0.34375 0.375 -0.34375 1.09375zm4.119873 -2.421875l0.703125 0l0 -0.359375q0 -0.609375 0.125 -0.90625q0.140625 -0.296875 0.484375 -0.484375q0.359375 -0.203125 0.890625 -0.203125q0.546875 0 1.0625 0.171875l-0.171875 0.890625q-0.296875 -0.078125 -0.578125 -0.078125q-0.28125 0 -0.40625 0.140625q-0.125 0.125 -0.125 0.5l0 0.328125l0.96875 0l0 1.015625l-0.96875 0l0 3.828125l-1.28125 0l0 -3.828125l-0.703125 0l0 -1.015625zm3.2156982 3.46875l1.28125 -0.203125q0.078125 0.375 0.328125 0.578125q0.265625 0.1875 0.703125 0.1875q0.5 0 0.75 -0.1875q0.171875 -0.125 0.171875 -0.34375q0 -0.140625 -0.09375 -0.234375q-0.09375 -0.09375 -0.421875 -0.171875q-1.546875 -0.34375 -1.96875 -0.625q-0.578125 -0.390625 -0.578125 -1.09375q0 -0.625 0.5 -1.046875q0.5 -0.4375 1.546875 -0.4375q0.984375 0 1.46875 0.328125q0.484375 0.328125 0.671875 0.953125l-1.21875 0.234375q-0.078125 -0.28125 -0.296875 -0.4375q-0.203125 -0.15625 -0.609375 -0.15625q-0.5 0 -0.71875 0.140625q-0.15625 0.109375 -0.15625 0.265625q0 0.140625 0.140625 0.234375q0.171875 0.125 1.1875 0.359375q1.03125 0.234375 1.4375 0.5625q0.390625 0.34375 0.390625 0.953125q0 0.671875 -0.5625 1.15625q-0.546875 0.46875 -1.640625 0.46875q-0.984375 0 -1.5625 -0.390625q-0.578125 -0.40625 -0.75 -1.09375z" fill-rule="nonzero"/></g></svg>